<?xml version="1.0" encoding="UTF-8"?>
<svg id="prøve" xmlns="http://www.w3.org/2000/svg" viewBox="0 0 36 36">
  <defs>
    <style>
      .cls-1 {
        opacity: .06;
      }
    </style>
  </defs>
  <g>
    <path d="M7.93,29.94c-.08,0-.15-.03-.19-.09-.08-.09-.08-.22-.08-.34v-2.9c-.01-.18-.02-.39-.1-.56-.06-.12-.17-.21-.27-.3l-1.59-1.38,.03,2.35h-.04c-.17,.04-.38,.06-.49-.09-.06-.08-.07-.19-.08-.28-.03-.3-.02-.61,.03-.91h.1c-.04,.31-.05,.6-.03,.9,0,.08,.02,.17,.06,.23,.08,.1,.22,.1,.36,.07l-.03-2.29s0-.07,.05-.1c.03-.02,.07,0,.1,.02l1.6,1.39c.1,.09,.22,.19,.29,.33,.1,.19,.1,.42,.1,.6v2.9c.01,.11,.02,.21,.07,.28,.04,.05,.1,.06,.14,.05,.08,0,.17-.06,.21-.13,.08-.13,.08-.3,.08-.5l-.04-1.94h.1s.04,1.94,.04,1.94c0,.17,0,.38-.09,.55-.06,.1-.17,.17-.29,.18,0,0-.02,0-.02,0Z"/>
    <path d="M5.22,25.6h-.1c0-.68,0-1.36,0-2.02,0-.86-.03-1.74-.07-2.6h.1c.04,.86,.06,1.74,.07,2.6,0,.66,0,1.34,0,2.02Z"/>
    <path d="M5.05,20.98l-.04-1.32s0-.1-.02-.14c-.03-.07-.1-.12-.18-.16-.04-.02-.09-.05-.13-.08-.1-.08-.17-.22-.18-.35,0-.14,.04-.28,.14-.37,.1-.1,.22-.14,.35-.18,.09-.03,.18-.06,.25-.11,.02-.01,.04-.03,.06-.04,.06-.05,.13-.11,.22-.11h0c.08,0,.14,.04,.2,.08l1.51,1-.05,.08-1.51-1s-.09-.07-.14-.06c-.06,0-.11,.04-.16,.09-.02,.02-.04,.03-.06,.05-.09,.06-.18,.09-.28,.12-.12,.04-.23,.07-.31,.16-.07,.08-.12,.19-.11,.3,0,.11,.06,.22,.14,.28,.03,.03,.07,.05,.12,.07,.09,.05,.18,.1,.22,.21,.02,.06,.03,.12,.03,.18l.04,1.32h-.1Z"/>
    <path d="M5.01,18.38l-.05-3.58s0-.1,.04-.14c.03-.03,.08-.04,.11-.04l.27-.02s.1,0,.14,.04c.03,.03,.03,.07,.03,.1,.04,.38,.04,.77,.05,1.14l.03,2.26h-.1s-.03-2.26-.03-2.26c0-.38-.01-.76-.05-1.14,0-.01,0-.04-.01-.05,0-.01-.04,0-.06,0l-.27,.02s-.04,0-.05,.01c-.01,.01-.01,.05-.01,.07l.05,3.58h-.1Z"/>
    <path d="M5.94,18.45c-.13-.94-.21-1.86-.22-2.73h.1c0,.86,.08,1.78,.21,2.71h-.1Z"/>
    <path d="M6.8,21.96c-.12,0-.25-.07-.33-.16-.11-.13-.17-.31-.21-.46-.09-.31-.2-.66-.15-1.02h.1c-.05,.35,.05,.69,.14,.99,.04,.15,.09,.31,.2,.43,.09,.1,.24,.17,.36,.1l.05,.08s-.1,.04-.15,.04Z"/>
    <path d="M7.58,24.44c-.12-.12-.26-.23-.4-.33-.23-.16-.46-.33-.6-.59-.18-.34-.16-.76-.14-1.1,0-.11,.01-.24,.07-.35,.05-.11,.17-.21,.3-.18l-.02,.09c-.08-.02-.16,.05-.2,.13-.04,.09-.05,.21-.06,.31-.02,.33-.04,.73,.13,1.05,.13,.24,.34,.4,.57,.56,.14,.1,.29,.21,.42,.34l-.07,.07Z"/>
    <rect x="7.04" y="21.78" width=".1" height="1.23" transform="translate(-15.47 15.86) rotate(-56.29)"/>
    <rect x="7.16" y="24.38" width=".38" height=".1" transform="translate(-5.14 2.18) rotate(-12.56)"/>
    <path d="M6.25,23.78l-.04-.09c.14-.08,.29-.13,.45-.16l.02,.09c-.15,.03-.29,.08-.42,.15Z"/>
    <path d="M7.02,22c-.07,0-.13,0-.2-.01v-.1c.27,.03,.53,0,.77-.11l.04,.09c-.19,.08-.4,.13-.61,.13Z"/>
    <rect x="8.29" y="25.18" width=".52" height=".1" transform="translate(-1.67 .63) rotate(-3.84)"/>
    <rect x="8.26" y="24.96" width=".33" height=".1" transform="translate(-5.81 2.79) rotate(-14.04)"/>
    <path d="M9.2,25.58l-.14-.03c-.25-.06-.52-.06-.78,0l-.02-.09c.22-.06,.46-.07,.69-.03-.15-.16-.31-.31-.48-.45l.06-.07-.03,.04,.03-.04c.2,.18,.41,.36,.58,.57l.09,.11Z"/>
    <path d="M6.86,20.8s-.03,0-.04,0c-.07-.02-.13-.06-.19-.1-.52-.41-1.07-.78-1.64-1.11l.05-.08c.57,.33,1.13,.71,1.65,1.11,.05,.04,.1,.07,.15,.09,.04,0,.09,0,.11-.05,.01-.03,0-.07-.02-.11-.03-.04-.06-.07-.1-.09-.74-.53-1.5-1.06-2.26-1.55l.05-.08c.76,.5,1.53,1.02,2.27,1.56,.04,.03,.09,.07,.13,.12,.04,.06,.05,.14,.03,.2-.03,.07-.11,.11-.17,.11Z"/>
    <path d="M7.32,20.94c-.18,0-.36-.04-.5-.15l.06-.08c.22,.17,.51,.14,.81,.1l.88-.13c.07-.01,.12-.02,.16-.06,.07-.06,.07-.2,.02-.28-.06-.1-.16-.17-.25-.22l-1.31-.86,.05-.08,1.31,.86c.1,.06,.21,.14,.28,.26,.07,.12,.07,.31-.04,.4-.06,.06-.15,.07-.21,.08l-.88,.13c-.13,.02-.25,.04-.38,.04Z"/>
    <rect x="6.85" y="20.33" width="1.88" height=".1" transform="translate(-1.29 .54) rotate(-3.68)"/>
    <path d="M7.62,24.9c-.65-.58-1.32-1.14-2-1.66h-.02s0-.04,0-.04c-.02-1.06-.02-2.2-.03-3.29h.1c0,1.09,0,2.22,.03,3.27,.68,.52,1.35,1.08,1.99,1.65l-.06,.07Z"/>
    <path d="M7.71,25.23l-.08-.08c-.7-.66-1.45-1.28-2.29-1.91l.06-.08c.82,.6,1.54,1.2,2.22,1.83-.01-.57-.02-1.14-.03-1.71l-.05-2.43h.1s.05,2.43,.05,2.43c.01,.61,.03,1.21,.04,1.82v.11Z"/>
    <rect x="8.18" y="20.83" width=".1" height="6.55" transform="translate(-.11 .04) rotate(-.27)"/>
    <path d="M9.62,25.6c-.17,0-.35-.02-.52-.07l.03-.09c.36,.1,.75,.06,1.09,.01l5.07-.61c.35-.04,.74-.06,.99,.2l-.07,.07c-.23-.23-.59-.21-.91-.17l-5.07,.61c-.2,.02-.4,.05-.62,.05Z"/>
    <path d="M9.62,25.38c-.38,0-.73-.08-.97-.36l.07-.06c.31,.37,.84,.36,1.37,.3l5.19-.6c.19-.02,.39-.04,.57-.13,.19-.09,.32-.26,.35-.44h.1s.01,.94,.01,.94h-.1s0-.69,0-.69c-.07,.11-.18,.21-.31,.27-.19,.09-.41,.12-.6,.14l-5.19,.6c-.16,.02-.32,.03-.48,.03Z"/>
    <path d="M9.39,23.62c-.14,0-.27-.01-.41-.04-.33-.08-.6-.27-.73-.53l.09-.04c.12,.24,.36,.41,.67,.48,.28,.06,.57,.04,.85,.01,2.01-.18,4.09-.37,6.11-.74-1.08-.65-2.24-1.16-3.44-1.5l.03-.09c1.25,.35,2.45,.88,3.57,1.57l.11,.07-.12,.02c-2.06,.39-4.19,.58-6.24,.77-.15,.01-.31,.03-.47,.03Z"/>
    <path d="M15.81,24.63l-.03-.09c.1-.03,.18-.13,.23-.25,.04-.11,.06-.24,.06-.39,.02-.35,0-.71-.06-1.06l.1-.02c.06,.35,.08,.72,.06,1.08,0,.14-.02,.28-.07,.42-.06,.15-.16,.27-.29,.31Z"/>
    <path d="M8.26,21.77v-.1c1.46-.22,2.97-.38,4.46-.48v.1c-1.48,.1-2.98,.26-4.46,.48Z"/>
    <path d="M8.24,26.42l-.02-.09c2.62-.47,5.29-.84,7.94-1.09v-.22s.1,0,.1,0v.3s-.05,0-.05,0c-2.66,.25-5.34,.62-7.97,1.09Z"/>
    <path d="M16.08,28.6v-.05c-.05-.76,0-1.53,.11-2.28-2.9,.35-5.5,.71-7.95,1.11l-.02-.1c2.47-.4,5.1-.77,8.02-1.12h.06s-.01,.06-.01,.06c-.12,.75-.16,1.51-.12,2.27h.5s.06-8.55,.06-8.55h.1s-.06,8.64-.06,8.64h-.69Z"/>
    <path d="M16.15,24.31c-.1-1.55-.07-3.05,.1-4.43-1.08-.55-2.19-1.08-3.29-1.57l.04-.09c1.12,.49,2.24,1.03,3.33,1.59l.03,.02v.03c-.18,1.39-.21,2.89-.11,4.45h-.1Z"/>
    <path d="M16.74,19.99v-.1s.99-.05,.99-.05c.14,0,.26-.02,.35-.09,.05-.04,.09-.11,.1-.17,0-.03,0-.08-.03-.12-.41-.24-.85-.41-1.28-.58-.27-.11-.55-.22-.82-.34-.11-.05-.23-.11-.34-.16-.22-.11-.45-.22-.68-.31-.4-.15-.76-.19-1.07-.12l-.02-.09c.33-.07,.7-.03,1.12,.13,.24,.09,.47,.2,.69,.31,.11,.06,.22,.11,.34,.16,.27,.12,.55,.23,.82,.34,.44,.17,.89,.35,1.3,.59h.01c.04,.06,.06,.13,.05,.21-.01,.09-.06,.18-.14,.24-.12,.09-.28,.1-.4,.11l-1,.05Z"/>
    <path d="M16.88,19.66c-.16,0-.29-.02-.42-.05-.18-.05-.35-.13-.52-.21-.66-.32-1.34-.65-1.95-.92l-1.03-.47,.04-.09,1.03,.47c.62,.27,1.3,.6,1.96,.92,.16,.08,.33,.16,.5,.2,.18,.05,.38,.06,.64,.03,.24-.02,.48-.06,.71-.11l.35-.06,.02,.09-.35,.06c-.23,.04-.48,.09-.72,.11-.09,0-.18,.01-.26,.01Z"/>
    <path d="M12.51,21.27v-.1c.22-.01,.44-.04,.57-.2,.13-.16,.12-.41,.1-.64-.06-.67-.14-1.35-.23-2.01-.01-.14-.02-.27-.02-.4,0-.04,0-.15,.07-.19,.04-.02,.08-.02,.1-.01l.94,.12v.1s-.95-.12-.95-.12c-.02,0-.04,0-.05,0s-.02,.03-.02,.1c0,.13,.01,.26,.02,.4,.09,.66,.17,1.34,.24,2.01,.02,.24,.03,.51-.12,.7-.15,.2-.41,.23-.65,.24Z"/>
    <path d="M12.91,17.99l-.38-2.57h0c.02-.16-.03-.43-.16-.57-.06-.07-.12-.1-.2-.1-2.28-.19-4.06-.11-5.78,.26l-.02-.09c1.73-.37,3.52-.45,5.8-.26h0c.1,0,.19,.05,.27,.14,.15,.17,.21,.46,.18,.64l.35,2.39h0s.02,.17,.02,.17h-.1Z"/>
    <path d="M12.67,15.51h-.1s0-1.19,0-1.19c0,0,0-.03,0-.03,0,0,0,0-.04,0l-.35,.04,.03,.25h-.1s-.04-.34-.04-.34l.44-.06s.09-.01,.13,.04c.02,.03,.02,.07,.02,.09v1.19Z"/>
    <rect x="8.23" y="22.9" width=".1" height=".21" transform="translate(-14.98 15.46) rotate(-52.23)"/>
    <path d="M5.73,15.79c-.04-.22,.02-.47,.16-.64,.14-.17,.36-.27,.58-.25v.1c-.19-.02-.38,.07-.5,.21-.12,.15-.18,.37-.14,.56l-.09,.02Z"/>
    <rect x="12.13" y="14.55" width=".1" height=".15" transform="translate(-1.22 1.11) rotate(-4.96)"/>
    <path d="M5.52,15.1v-.1c.18-.01,.37-.02,.56,0v.1c-.19,0-.37,0-.56,0Z"/>
    <rect x="5.51" y="15.34" width=".29" height=".1" transform="translate(-.41 .16) rotate(-1.52)"/>
    <path d="M16.71,20c-.18,0-.36-.05-.51-.13l.05-.08c.17,.09,.37,.14,.56,.12v.1s-.06,0-.09,0Z"/>
  </g>
  <g>
    <path d="M13.79,9.37v3.66h-.32l-2.34-2.97v2.97h-.38v-3.66h.32l2.34,2.97v-2.97h.38Z"/>
    <path d="M14.62,11.65c0-.82,.59-1.4,1.39-1.4s1.39,.58,1.39,1.4-.59,1.4-1.39,1.4-1.39-.59-1.39-1.4Zm2.4,0c0-.64-.43-1.07-1.01-1.07s-1.02,.43-1.02,1.07,.44,1.07,1.02,1.07,1.01-.43,1.01-1.07Z"/>
    <path d="M20.36,10.28l-1.21,2.75h-.38l-1.21-2.75h.38l1.02,2.34,1.03-2.34h.36Z"/>
    <path d="M22.86,11.32v1.7h-.35v-.43c-.17,.28-.49,.45-.94,.45-.62,0-1-.32-1-.8,0-.42,.27-.78,1.05-.78h.87v-.17c0-.47-.26-.73-.77-.73-.35,0-.68,.13-.91,.32l-.17-.28c.28-.24,.68-.37,1.11-.37,.71,0,1.11,.36,1.11,1.07Zm-.37,.88v-.45h-.86c-.53,0-.7,.21-.7,.49,0,.32,.25,.52,.69,.52s.72-.2,.87-.56Z"/>
  </g>
  <g>
    <path d="M18.32,14.22v2.41h-.24v-1.93l-.94,1.62h-.12l-.94-1.61v1.92h-.24v-2.41h.21l1.04,1.79,1.03-1.79h.21Z"/>
    <path d="M20.7,15.73c0,.54-.39,.92-.91,.92-.17,0-.33-.04-.46-.11l-.22,.34h-.16l.27-.41c-.22-.17-.35-.42-.35-.74,0-.54,.39-.92,.92-.92,.17,0,.32,.04,.45,.11l.22-.33h.16l-.27,.4c.22,.16,.35,.42,.35,.74Zm-1.36,.54l.77-1.17c-.1-.06-.21-.08-.33-.08-.38,0-.67,.28-.67,.71,0,.23,.09,.42,.23,.54Zm1.11-.54c0-.23-.09-.42-.23-.55l-.77,1.17c.1,.06,.21,.08,.33,.08,.38,0,.67-.28,.67-.71Z"/>
    <path d="M23.02,15.73c0,.55-.38,.92-.9,.92-.3,0-.55-.13-.7-.38v.36h-.23v-2.56h.24v1.09c.15-.23,.4-.36,.68-.36,.51,0,.9,.37,.9,.92Zm-.24,0c0-.42-.29-.71-.67-.71s-.67,.28-.67,.71,.29,.71,.67,.71,.67-.28,.67-.71Z"/>
    <path d="M23.52,14.07h.24v2.56h-.24v-2.56Z"/>
    <path d="M26.01,15.8h-1.51c.03,.38,.32,.63,.71,.63,.22,0,.41-.08,.55-.24l.14,.16c-.16,.19-.41,.3-.7,.3-.56,0-.95-.39-.95-.92s.37-.92,.88-.92,.87,.38,.87,.92c0,.02,0,.05,0,.08Zm-1.51-.18h1.28c-.03-.36-.29-.6-.64-.6s-.61,.25-.64,.6Z"/>
    <path d="M27.42,14.8v.24s-.04,0-.06,0c-.38,0-.61,.24-.61,.67v.92h-.24v-1.81h.23v.36c.11-.24,.34-.37,.67-.37Z"/>
  </g>
  <g>
    <g class="cls-1">
      <path d="M30.59,25.63c-.13,.01-.26,.04-.38,.09-.11,.05-.22,.16-.35,.16v.27c.11,0,.22,.01,.33-.02,.09-.03,.18-.09,.26-.13,.17-.09,.28-.24,.44-.33,.13-.07,.04-.31-.11-.25-.1,.04-.21,.07-.3,.12-.11,.05-.2,.13-.31,.18-.22,.11-.47,.17-.71,.18-.12,0-.23,.04-.35,.05s-.24,.03-.36,.04c-.26,0-.53,0-.79,0-.18,0-.17,.27,0,.27,.17,0,.32-.05,.49-.05,.18,0,.35,.08,.54,.09,.17,0,.33,0,.49-.06s.33-.02,.5-.02,.34-.05,.51-.1c.15-.05,.33-.1,.47-.18,.1-.06,.18-.16,.18-.28,0-.06-.03-.13-.06-.18-.02-.03-.05-.06-.07-.09-.04-.06-.04-.1-.04-.17l-.27,.04c.02,.08,.11,.17,.13,.25,.02,.1-.09,.19-.18,.19v.27c.14,0,.22-.04,.34-.1,.16-.08,.02-.32-.14-.24-.08,.04-.11,.07-.2,.06-.18,0-.17,.26,0,.27,.2,.02,.34-.12,.41-.29,.04-.08,.05-.16,.03-.25-.03-.09-.1-.16-.13-.25-.04-.15-.27-.12-.27,.04s.02,.24,.12,.36c.04,.06,.06,.07,0,.12-.05,.04-.14,.06-.2,.08-.15,.05-.3,.11-.46,.14s-.3,0-.46,0c-.13,0-.25,.04-.37,.07-.14,.04-.33,.03-.47,0s-.29-.07-.44-.07-.3,.05-.44,.05v.27c.28,0,.56,.01,.84,0,.24-.01,.47-.07,.7-.09s.46-.07,.67-.16c.23-.1,.44-.25,.68-.34l-.11-.25c-.14,.08-.23,.21-.36,.28-.06,.04-.14,.08-.2,.11-.11,.06-.21,.05-.33,.05-.18,0-.17,.27,0,.27,.12,0,.22-.05,.33-.11,.12-.08,.25-.12,.4-.14,.17-.02,.17-.29,0-.27h0Z"/>
    </g>
    <g class="cls-1">
      <path d="M27.51,26.22c-.17,.06-.34,.1-.52,.13s-.34,.01-.51,.04c-.07,0-.13,.03-.2,.05-.08,.02-.11,.02-.19,0-.06-.02-.13-.01-.18,.02-.05,.03-.06,.08-.1,.12l.23,.13c.01-.06,.09-.12,.11-.18l-.15,.06c-.06-.02,.05-.13-.06-.11-.02,0-.04,.02-.06,.04-.06,.05-.02,.05-.08,.07-.11,.03-.22,.07-.33,.12s-.19,.05-.31,.05c-.13,0-.21,.08-.32,.09-.17,.03-.1,.29,.07,.26,.08-.01,.15-.08,.23-.08,.09,0,.17,0,.26-.01,.16-.04,.32-.11,.47-.17,.03,0,.06-.02,.09-.03,.04-.02,.06-.05,.09-.07,.06-.04,.11-.03,.16-.1,.08-.13,0-.28-.14-.32-.05-.02-.13,.01-.15,.06-.04,.09-.12,.15-.14,.25-.03,.13,.13,.24,.23,.13,.02-.02,.04-.04,.05-.06,.04-.08-.04,0-.04,0,0,.03,.16,.03,.18,.03,.14-.01,.26-.08,.41-.08,.33-.01,.66-.06,.98-.17,.17-.06,.09-.32-.07-.26h0Z"/>
    </g>
    <g class="cls-1">
      <path d="M24.63,26.84c-.1-.01-.2-.04-.31-.06-.06,0-.12,.05-.13,.1-.01,.06,.01,.12,.06,.15,.13,.09,.29,.12,.45,.13,.08,0,.16,0,.25-.02,.07-.01,.14-.04,.22-.05s.12-.11,.09-.17c-.03-.08-.09-.11-.17-.09-.06,.01-.13,.03-.19,.04-.02,0-.03,0-.05,0,.03,0-.03,0-.03,0-.03,0-.07,0-.1,0-.03,0-.06,0-.09,0-.02,0-.02,0,0,0,0,0-.02,0-.02,0-.01,0-.03,0-.04,0s-.03,0-.04-.01c0,0-.02,0-.02,0,.01,0,.01,0,0,0-.03-.02-.06-.03-.09-.05l-.07,.26s0,0,0,0c.01,0,.02,0,.04,0,.02,0,.04,0,.06,.01,.04,0,.09,.02,.13,.03,.07,0,.15-.02,.17-.1,.01-.07-.02-.16-.1-.17h0Z"/>
    </g>
    <path d="M26.81,26.42v-.1c.1,0,.2-.06,.27-.14l.08,.06c-.08,.11-.21,.17-.34,.18Z"/>
    <path d="M27.45,25.19c.06-.09,.1-.2,.05-.3-.04-.09-.14-.11-.22-.12-.11-.01-.18,.07-.23,.16-.07,.12-.06,.23-.02,.36,.06,.2,.26,.4,.48,.3,.06-.03,.12-.06,.18-.09,.04-.02,.07-.03,.09-.06,.08-.1,.1-.28,.11-.4,0-.24-.06-.52-.26-.67-.17-.13-.45-.04-.59,.1-.19,.19-.35,.45-.37,.73s.15,.56,.39,.72c.12,.08,.26,.11,.4,.11,.13,0,.23-.05,.32-.14,.21-.2,.35-.47,.34-.78-.01-.49-.38-1.31-.99-1.06-.28,.11-.45,.34-.61,.58s-.19,.51-.11,.8,.2,.57,.43,.75c.2,.16,.49,.19,.73,.14,.62-.12,1.03-.83,.84-1.43-.09-.31-.27-.65-.52-.86-.11-.1-.23-.14-.38-.15s-.3-.02-.41,.1c-.06,.06,.04,.16,.1,.1,.08-.08,.21-.06,.32-.06,.12,0,.22,.05,.31,.13,.16,.14,.26,.33,.35,.52,.09,.2,.16,.4,.15,.63s-.13,.39-.25,.56c-.23,.32-.77,.47-1.11,.24-.17-.12-.29-.34-.36-.53-.07-.2-.13-.42-.08-.63,.05-.2,.2-.4,.34-.55s.37-.31,.59-.23c.24,.08,.33,.27,.42,.49s.14,.45,.09,.69c-.05,.2-.18,.42-.36,.53-.09,.05-.24,.03-.34,0-.11-.03-.21-.11-.28-.19-.17-.19-.22-.41-.15-.65,.03-.1,.09-.18,.15-.27s.12-.18,.2-.24c.07-.05,.22-.08,.31-.05,.1,.03,.17,.16,.2,.25,.04,.1,.05,.21,.05,.31,0,.09-.01,.25-.07,.32-.03,.04-.11,.05-.15,.08-.05,.03-.09,.06-.14,.06-.12,0-.2-.12-.23-.23s-.04-.33,.12-.34c.15,0,.11,.13,.06,.22-.05,.07,.07,.14,.12,.07h0Z"/>
    <path d="M25.9,25.88s.02-.08,.02-.13c0,0,0-.01,0-.02,0-.01,0,0,0,0,0,0,0-.01,0-.02,0-.01,0-.02,0-.04,0-.03,0-.06,0-.09,0-.04-.01-.08-.04-.1-.03-.02-.07-.03-.1,0-.02,.03-.03,.07,0,.1,0,0,0-.01,0,0,0,0,0-.02,0,0,0,0,0,0,0,0,0,0,0,0,0,0,0,.01,0-.01,0,0,0,0,0,.01,0,.02,0,.01,0,.03,0,.04,0,0,0,.01,0,.02,0,0,0-.02,0,0,0,0,0,0,0,0,0,.01,0,.02-.01,.04,0,.02,0,.04,0,.06,0,0,0,.02,0,.02,0,0,0,.02,0,.03h0s0,0,0,0c0,0,0,0,0,.01,0,0,0,.02,0,.03-.01,.03,.02,.08,.05,.08,.04,0,.07-.01,.08-.05h0Z"/>
    <path d="M25.92,25.07s0-.01,0-.02v.02c0-.07,.03-.13,.03-.2h-.14s.03,.08,.07,.08,.07-.03,.07-.07h0s-.03-.08-.07-.08-.07,.03-.07,.07c0,.01,0,.03,0,.04v-.02c0,.06-.02,.12-.03,.18,0,.02,0,.04,.02,.05,.01,.01,.03,.02,.05,.02s.04,0,.05-.02,.02-.03,.02-.05h0Z"/>
    <path d="M26.06,24.49s.01-.03,.02-.05v.02s0-.04,.02-.05h-.01s0,0,.01,0h-.01s0,0,0,0h-.02s0,0,0,0h-.02s0,0,0,0h-.02s0,0,0,0l.02-.14h-.01s-.04,0-.05,.02c-.01,.01-.02,.03-.02,.05s0,.04,.02,.05,.03,.02,.05,.02h.01s.04,0,.05-.02h.01s0-.03,0-.04c0,0,0-.01,0-.02,0,0,0-.02,0-.03,0-.02-.02-.03-.04-.03,0,0,0,0-.01,0,0,0,0,0-.01,0,0,0-.02,0-.02,0,0,0,0,0,0,0-.02,0-.03,.02-.05,.03-.02,.02-.03,.04-.04,.07,0,.01-.01,.03-.02,.05v-.02s0,0,0,.01c0,.02-.01,.03,0,.05,0,.02,.02,.03,.03,.04,.02,0,.04,.01,.05,0,.02,0,.03-.02,.04-.03h0Z"/>
    <path d="M26.31,24.01s.04-.05,.05-.08h-.01s.03-.03,.06-.05h-.01s.01,0,.02,0h-.02s0,0,.01,0h-.02s0,0,0,0h-.02s0,0,0,0l.02-.14h-.01s-.04,0-.05,.02c-.01,.01-.02,.03-.02,.05,0,.04,.03,.07,.07,.07h.01s.06-.03,.07-.06-.02-.07-.05-.07c-.05-.01-.09,.01-.13,.05-.03,.03-.05,.06-.07,.09,0,.01-.01,.02-.02,.03h.01s0-.01,0-.01c0,0-.01,.01-.01,.02,0,0,0,.02,0,.03,0,.02,0,.04,.02,.05s.03,.02,.05,.02c.02,0,.04,0,.05-.02h0Z"/>
    <path d="M26.85,26.29c-.1,0-.18-.03-.28-.03-.11,0-.2-.01-.31-.05-.1-.03-.2-.05-.3-.09-.13-.04-.24-.11-.37-.15-.11-.04-.22-.09-.34-.11-.05,0-.11,0-.16-.01-.06-.01-.1-.05-.15-.08-.07-.03-.14-.05-.22-.04-.12,0-.24,0-.36,0-.25,0-.46-.07-.71-.11-.12-.02-.23-.04-.35-.05-.13-.01-.24-.08-.37-.1-.19-.03-.37-.07-.57-.09-.26-.02-.49-.1-.73-.18-.1-.03-.19-.07-.29-.11s-.21-.07-.28-.16c-.16-.22-.16-.47-.16-.73,0-.16,.12-.2,.2-.3,.07-.09,.12-.19,.2-.27,.05-.05,.1-.1,.14-.16s.1-.12,.13-.19c.04-.09,.03-.18,.16-.2,.09-.01,.19,.04,.28,.03,.12,0,.23,0,.35,.02,.13,.02,.26,.04,.4,.04,.12,0,.24,.01,.37,.02,.14,0,.25,.03,.39,.07,.1,.03,.2,.02,.3,.04,.12,.02,.24,.03,.36,.02,.26,0,.52,.06,.77,.11,.12,.02,.24,.03,.36,.06,.13,.03,.26,.07,.39,.1,.25,.06,.52,.09,.77,.18,.13,.05,.27,.06,.39,.11,.05,.02,.25,.08,.27,.13l.03-.08h-.02c-.08,.05,0,.17,.07,.13h.02s.04-.06,.03-.09c-.04-.13-.29-.2-.39-.24-.11-.03-.23-.04-.34-.08-.13-.05-.27-.07-.41-.11-.26-.07-.52-.11-.77-.18-.23-.07-.48-.06-.71-.12-.12-.03-.23-.06-.35-.06-.15,0-.29,0-.44-.02-.11-.02-.22-.01-.33-.05-.14-.05-.25-.06-.4-.06-.29,0-.58-.05-.87-.09-.12-.01-.23,.02-.35,0-.08-.01-.16-.03-.24,0-.06,.02-.14,.07-.16,.13-.01,.02,0,.05-.02,.07-.03,.1-.06,.1-.11,.17-.05,.07-.08,.14-.15,.21-.09,.09-.15,.21-.23,.31-.06,.06-.14,.11-.18,.19-.05,.1-.03,.22-.03,.33,0,.25,.05,.43,.17,.64,.09,.16,.29,.19,.45,.25,.24,.09,.48,.18,.73,.23,.12,.02,.24,.03,.36,.04s.23,.06,.35,.08c.08,.01,.13,.01,.21,.04,.04,.02,.08,.03,.12,.04,.16,.04,.32,.04,.48,.07,.15,.03,.29,.08,.44,.1,.13,.02,.28,.01,.41,.02,.16,0,.28-.03,.43,.05,.12,.06,.23,.05,.36,.1,.29,.09,.55,.21,.84,.3,.11,.03,.21,.08,.33,.08,.06,0,.12,0,.18,0,.07,0,.13,.03,.2,.03,.09,0,.09-.13,0-.14h0Z"/>
    <path d="M25.39,23.68c.08,.15,.05,.3-.11,.37-.1,.04-.19,.07-.28,.13s-.17,.1-.22,.2-.05,.2,.01,.29c.05,.08,.14,.12,.2,.19,.03,.04,.05,.09,.05,.13,0,.07-.02,.1-.08,.13-.08,.05-.15,.1-.17,.2-.03,.12,.02,.24,.03,.36,0,.09,.14,.09,.14,0,0-.12-.09-.31,0-.4,.07-.07,.17-.08,.21-.18,.03-.08,0-.19-.03-.27-.04-.09-.12-.13-.19-.2-.05-.05-.08-.11-.06-.18,.02-.08,.08-.11,.15-.15,.05-.04,.1-.07,.16-.1,.05-.02,.1-.03,.14-.05,.23-.1,.28-.34,.16-.56-.04-.08-.16,0-.12,.07h0Z"/>
    <path d="M24.71,23.63c-.22,.25-.27,.6-.36,.91-.05,.18-.09,.35-.11,.53-.02,.21,0,.41,0,.62,0,.09,.14,.09,.14,0,0-.37,0-.72,.1-1.08,.09-.29,.13-.65,.34-.88,.06-.07-.04-.16-.1-.1h0Z"/>
    <path d="M24.25,23.35c-.17,.35-.22,.74-.33,1.11-.06,.2-.09,.4-.13,.6-.02,.09-.03,.18-.04,.27s-.03,.19-.03,.28,.14,.09,.14,0c0-.08,.02-.16,.03-.24,0-.11,.03-.21,.04-.32,.03-.19,.07-.38,.12-.56,.11-.36,.15-.74,.32-1.08,.04-.08-.08-.15-.12-.07h0Z"/>
    <path d="M23.33,25.51c.09-.07,.16-.12,.2-.23s.04-.21,0-.31c-.02-.05-.06-.09-.07-.15,0-.02-.02-.07-.02-.09,0-.04,.05-.05,.08-.07,.08-.05,.16-.14,.19-.23,.03-.1,.02-.21,0-.31-.02-.11-.15-.21-.12-.33,.03-.12,.18-.12,.26-.19,.09-.08,.11-.16,.08-.27-.02-.09-.15-.05-.13,.04,.03,.14-.12,.16-.21,.22-.07,.05-.12,.13-.13,.21s.03,.18,.07,.26c.01,.02,.03,.04,.04,.06,.01,.03,.02,.09,.02,.13,0,.06,0,.12-.02,.17-.02,.05-.08,.11-.12,.14-.04,.02-.08,.03-.11,.07-.05,.06-.04,.15-.02,.22,.03,.11,.12,.2,.11,.32-.01,.13-.11,.19-.19,.27-.07,.06,.03,.15,.1,.1h0Z"/>
    <path d="M23.19,23.32c-.09,.15-.15,.28-.18,.45-.03,.18-.04,.37-.05,.55s-.05,.38-.06,.57-.02,.4-.02,.6c0,.09,.14,.09,.14,0,0-.18,0-.36,.01-.54s.04-.37,.06-.55,.02-.36,.05-.54,.08-.32,.18-.48c.05-.08-.07-.14-.12-.07h0Z"/>
    <path d="M22.83,23.2c-.07,.16-.14,.32-.18,.49-.04,.19-.05,.37-.07,.56s-.04,.38-.05,.57c0,.1-.02,.19-.02,.29,0,.05,0,.1,0,.15,0,.03,.01,.08,0,.11-.05,.07,.07,.14,.12,.07,.04-.05,.03-.11,.02-.18,0-.1,.01-.2,.02-.3,.02-.2,.03-.39,.04-.59s.04-.41,.07-.61c.03-.19,.11-.35,.18-.53,.03-.08-.1-.12-.13-.04h0Z"/>
    <path d="M22.14,25.19c-.01-.06-.03-.11-.02-.17,0-.05,.02-.09,.02-.14-.02-.09-.09-.13-.15-.19-.1-.11-.03-.25,.08-.31,.08-.05,.15-.08,.18-.18s.01-.17,0-.26c0-.06,0-.1-.03-.15-.02-.07-.05-.15,.02-.19,.08-.04,.17-.03,.24-.1,.08-.07,.07-.17,.05-.27-.01-.09-.15-.09-.14,0,.01,.08,.04,.15-.05,.19-.04,.02-.08,.02-.12,.04-.08,.03-.16,.07-.17,.16-.03,.18,.2,.49-.02,.62-.08,.05-.17,.09-.21,.19s-.05,.19,0,.28c.04,.08,.16,.14,.17,.22,0,.05-.02,.1-.02,.15,0,.05,.02,.11,.03,.16,.02,.09,.15,.05,.13-.04h0Z"/>
    <path d="M21.94,23.18c-.05,.05-.09,.11-.12,.17-.01,.03-.03,.05-.04,.08-.02,.04-.03,.07-.03,.11,0,.04,.03,.07,.07,.07,.04,0,.06-.03,.07-.07,0,0,0,0,0,0,0,0,0,0,0,0,0,0,0-.01,0-.02,0,0,0-.01,0,0s0,0,0,0c0,0,0-.01,0-.02,.01-.02,.02-.05,.04-.07s.03-.05,.04-.07c0,0,0-.01,.01-.02,0,0,0,0,0,0,0,0,0,0,0,0,0-.01,.02-.02,.03-.04,.02-.03,.03-.07,0-.1s-.07-.03-.1,0h0Z"/>
    <path d="M21.57,23.8s-.03,.06-.03,.09c0,.02,0,.03-.01,.05,0,.02,0,.04,0,.06v-.02s0,0,0,.01v-.02s0,0,0,0h.01s0,0,0,0c-.01,.01-.02,.03-.02,.05s0,.04,.02,.05c.03,.03,.07,.02,.1,0,.02-.01,.03-.04,.03-.06,0-.02,0-.03,0-.05v.02s.02-.1,.04-.14c0-.02,0-.04,0-.05,0-.01-.02-.03-.04-.03-.02,0-.04,0-.05,0h-.01s-.01,.03-.02,.04h0Z"/>
    <path d="M21.38,24.44s0,.06,0,.08v-.02s0,.05-.01,.07v-.02s0,.02,0,.02h.01s0,0,0,0c-.03,.02-.03,.07,0,.1,.03,.03,.07,.02,.1,0,.03-.03,.05-.07,.05-.12,0-.04,0-.08,.01-.12,0-.02,0-.04-.02-.05-.01-.01-.03-.02-.05-.02s-.04,0-.05,.02c-.01,.01-.02,.03-.02,.05h0Z"/>
    <path d="M21.35,24.93c-.01,.05-.02,.1-.02,.16,0,.02,0,.04,.02,.05,.01,.01,.03,.02,.05,.02s.04,0,.05-.02,.02-.03,.02-.05c0-.02,0-.05,0-.07v.02s0-.05,0-.07c0-.02,0-.04,0-.05,0-.01-.02-.03-.04-.03-.02,0-.04,0-.05,0-.01,0-.03,.02-.03,.04h0Z"/>
    <path d="M25.84,26.4c-.15,.06-.3,.12-.45,.17s-.32,.05-.47,.08c-.32,.06-.65,.05-.98,.09-.3,.03-.58,.14-.87,.23-.23,.07-.5,.1-.7,.24-.07,.05,0,.17,.07,.12,.22-.15,.54-.18,.78-.26,.3-.1,.6-.18,.91-.2,.28-.02,.55-.03,.82-.08,.16-.03,.32-.04,.47-.08s.3-.11,.45-.17c.08-.03,.04-.17-.04-.13h0Z"/>
    <path d="M22.25,27.18c-.21-.22-.46-.4-.7-.58-.13-.1-.26-.13-.4-.2-.15-.08-.29-.17-.44-.24s-.29-.13-.44-.2-.27-.15-.42-.21c-.27-.1-.59-.22-.88-.23-.09,0-.09,.14,0,.14,.16,0,.31,.05,.46,.1,.13,.04,.26,.07,.38,.12,.15,.06,.29,.15,.43,.22s.29,.13,.44,.2c.13,.07,.26,.15,.39,.22s.27,.1,.39,.19c.24,.18,.48,.35,.69,.57,.06,.06,.16-.03,.1-.1h0Z"/>
    <path d="M20.83,24.84c-.22,.03-.43,.07-.64,.13s-.41,.08-.62,.1c-.2,.01-.39,.04-.58,.1-.08,.02-.14,.05-.21,.1-.04,.03-.09,.05-.14,.07-.04,.02-.08,.06-.13,.07-.06,.01-.06,.1-.02,.13s.1,.04,.15,.06c.06,.03,.12,.06,.19,.08,.14,.05,.28,.09,.4,.16,.08,.05,.14-.07,.07-.12-.11-.07-.24-.11-.36-.15-.07-.02-.14-.05-.21-.09-.05-.02-.12-.04-.17-.07l-.02,.13s.05-.02,.08-.04c.05-.03,.1-.05,.16-.08,.08-.04,.15-.1,.24-.13,.21-.06,.41-.08,.63-.1,.2-.01,.38-.04,.57-.1,.21-.06,.42-.1,.64-.13,.09-.01,.05-.14-.04-.13h0Z"/>
    <path d="M21.67,27.04c-.15,.03-.3,.06-.44,.12-.07,.03-.13,.06-.19,.1s-.11,.09-.17,.13c-.03,.02-.04,.06-.02,.09,.02,.03,.06,.05,.09,.02,.11-.08,.21-.17,.34-.22s.28-.08,.42-.11c.04,0,.06-.05,.05-.08-.01-.04-.05-.05-.08-.05h0Z"/>
    <path d="M21.46,26.8c-.14,.04-.28,.07-.41,.14s-.23,.18-.33,.28c-.06,.06,.04,.16,.1,.1,.09-.1,.18-.2,.3-.26s.25-.09,.38-.12c.08-.02,.05-.16-.04-.13h0Z"/>
    <path d="M21.15,26.47c-.07,.03-.13,.05-.2,.09-.06,.03-.11,.07-.16,.11s-.09,.09-.14,.13c-.05,.05-.1,.1-.15,.15-.02,.03-.03,.07,0,.1,.02,.02,.07,.03,.1,0,.08-.1,.18-.19,.28-.28s.22-.13,.34-.18c.03-.01,.04-.07,.02-.09-.02-.04-.06-.04-.09-.02h0Z"/>
    <path d="M20.75,26.3c-.11,.08-.22,.15-.33,.23-.1,.07-.2,.15-.32,.2-.03,.01-.06,.05-.05,.08,0,.03,.05,.06,.08,.05,.12-.05,.23-.13,.34-.2s.23-.15,.34-.24c.03-.02,.04-.06,.02-.09-.02-.03-.06-.05-.09-.02h0Z"/>
    <path d="M20.33,26.13c-.1,.07-.2,.14-.28,.22-.04,.04-.08,.08-.12,.12-.04,.04-.08,.09-.11,.14-.02,.03,0,.08,.03,.09s.07,0,.09-.03c.03-.04,.06-.08,.09-.12,.04-.04,.08-.08,.12-.12,.08-.07,.17-.13,.26-.19,.03-.02,.04-.06,.02-.09-.02-.03-.06-.04-.09-.02h0Z"/>
    <path d="M19.98,26.04c-.09,.05-.17,.12-.25,.18-.04,.03-.07,.06-.11,.08-.04,.03-.08,.05-.12,.08-.03,.02-.04,.06-.02,.09,.02,.03,.06,.05,.09,.02,.04-.03,.08-.05,.12-.08,.04-.03,.08-.06,.13-.1,.07-.06,.15-.12,.23-.17,.08-.05,0-.16-.07-.12h0Z"/>
    <path d="M19.64,25.79c-.08,.06-.17,.12-.25,.19-.04,.04-.07,.08-.1,.13s-.04,.1-.06,.15c-.01,.03,0,.08,.03,.09,.03,.02,.08,0,.09-.03,.02-.05,.04-.09,.06-.14s.05-.07,.08-.11c.06-.06,.14-.11,.22-.17,.03-.02,.05-.06,.02-.09-.02-.03-.06-.05-.09-.02h0Z"/>
    <path d="M19.24,25.69c-.09,.08-.17,.16-.25,.25-.03,.03-.05,.07-.08,.1-.01,.02-.03,.03-.04,.04,0,0,0,0,0,0,0,0,0,0-.01,0,0,0,.01,0,0,0,0,0,0,0,0,0,0,0,.02,0,0,0-.04,0-.07,.03-.07,.07,0,.04,.03,.06,.07,.07,.05,0,.1-.03,.13-.07,.03-.03,.05-.07,.08-.1,.08-.1,.17-.19,.26-.27,.03-.02,.03-.07,0-.1-.03-.03-.07-.02-.1,0h0Z"/>
    <path d="M18.8,25.69c-.09,.09-.19,.17-.28,.26-.03,.03-.03,.07,0,.1s.07,.03,.1,0c.09-.09,.18-.18,.28-.26,.03-.02,.03-.07,0-.1-.03-.03-.07-.03-.1,0h0Z"/>
    <path d="M18.44,25.54s-.08,.06-.13,.09c-.01,0-.02,.01-.03,.02,0,0-.01,0-.02,0,0,0-.02,0-.02,0,0,0,.01,0,0,0,0,0,0,0,0,0,0,0-.01,0-.02,0,0,0-.01,0-.02,0,0,0,0,0,0,0,0,0,0,0-.01,0-.04,0-.07,.03-.07,.07,0,.04,.03,.07,.07,.07,.12,0,.22-.09,.31-.16,.01-.01,.03-.02,.03-.04,0-.02,0-.04,0-.05-.02-.03-.06-.05-.09-.02h0Z"/>
    <path d="M22.12,27.24c-.11,.02-.22,.04-.32,.09s-.2,.14-.29,.21c-.03,.02-.04,.06-.02,.09,.02,.03,.06,.05,.09,.02,.09-.07,.18-.15,.28-.2,.08-.05,.18-.07,.27-.08,.04,0,.07-.03,.07-.07,0-.03-.03-.07-.07-.07h0Z"/>
    <path d="M25.18,26.22s-.03,0-.05,.01h.02s-.03,0-.04,0c-.02,0-.04,0-.05,.02,0,0-.01,.01-.01,.02,0,0,0,.02,0,.03,0,.02,0,.04,.02,.05s.03,.02,.05,.02c.04,0,.07,0,.11-.02,.02,0,.03-.02,.04-.03,0,0,0-.02,0-.03,0,0,0-.02,0-.03,0-.02-.02-.03-.03-.04s-.03-.01-.05,0h0Z"/>
    <path d="M24.66,26.25s-.04,0-.05,.01h.02s-.05,0-.07,0c-.02,0-.04,0-.05,.02s-.02,.03-.02,.05,0,.04,.02,.05,.03,.02,.05,.02c.05,0,.1,0,.14-.02,.02,0,.03-.02,.04-.03s.01-.04,0-.05-.02-.03-.03-.04c-.02,0-.03-.01-.05,0h0Z"/>
    <path d="M24.09,26.34h-.12s-.04,0-.05,.02-.02,.03-.02,.05,0,.04,.02,.05,.03,.02,.05,.02h.12s.04,0,.05-.02,.02-.03,.02-.05,0-.04-.02-.05-.03-.02-.05-.02h0Z"/>
    <path d="M23.41,26.51c-.1,.02-.2,.03-.29,.08-.03,.02-.04,.06-.02,.09,.02,.03,.06,.04,.09,.02,0,0,.01,0,.02,0,0,0,0,0,0,0,0,0,0,0,0,0,.01,0,.02,0,.03-.01,.02,0,.04-.01,.07-.02,.05-.01,.09-.02,.14-.03,.04,0,.06-.05,.05-.08-.01-.04-.05-.06-.08-.05h0Z"/>
    <path d="M22.7,26.68s-.05,.01-.08,.02c-.03,0-.06,.02-.09,.03-.01,0-.03,.03-.03,.04,0,.02,0,.04,0,.05s.02,.03,.04,.03c.02,0,.04,0,.05,0,0,0,.01,0,.02,0h-.02s.09-.02,.14-.03c.02,0,.03-.02,.04-.03,0-.01,.01-.04,0-.05s-.02-.03-.03-.04c-.02,0-.03-.01-.05,0h0Z"/>
    <path d="M24.08,25.96c-.05,.06-.11,.11-.19,.09-.06-.02-.1-.07-.14-.11-.06-.07-.12-.1-.21-.06-.1,.04-.17,.13-.25,.2-.14,.12-.29,.08-.45,.06-.1-.01-.21,0-.29,.08-.02,.01-.08,.1-.1,.1-.03,0-.06-.09-.1-.1-.09-.02-.14,.06-.19,.12-.1,.12-.21,.22-.34,.31-.07,.05,0,.17,.07,.12,.12-.08,.22-.17,.31-.27,.01-.01,.1-.13,.12-.13,0,0,.07,.08,.09,.09,.08,.03,.15-.05,.2-.1,.12-.12,.27-.05,.42-.05,.12,0,.23-.03,.32-.1,.08-.06,.2-.25,.3-.16,.08,.06,.12,.14,.23,.16,.12,.02,.21-.05,.29-.14,.06-.06-.04-.16-.1-.1h0Z"/>
    <path d="M22.89,25.69s-.06,.02-.09,.04c0,0-.01,.01-.02,.02,0,0,0,.01-.01,.02,0,0,0,.02,0,.03,0,0,0,.02,0,.03,0,.01,.02,.03,.04,.03h.02s.02,0,.03,0c0,0,.02,0,.03-.01h-.02s.03,0,.05-.01,.03-.02,.04-.03c0,0,0-.02,0-.03,0,0,0-.02,0-.03,0-.02-.02-.03-.03-.04s-.03-.01-.05,0h0Z"/>
    <path d="M22.27,25.95c-.05,.01-.1,.03-.15,.05,0,0-.02,0-.02,.01,0,0-.01,.01-.02,.02,0,.01-.01,.04,0,.05s.02,.03,.03,.04,.04,.01,.05,0c.05-.02,.1-.03,.15-.05,.02,0,.03-.02,.04-.03s.01-.04,0-.05c-.01-.04-.05-.06-.08-.05h0Z"/>
    <path d="M21.8,26.26c.09,0,.09-.14,0-.14s-.09,.14,0,.14h0Z"/>
    <path d="M22.07,25.63s-.09,.06-.14,.06c-.06,0-.11,0-.17,.01-.11,.02-.18,.11-.28,.15-.05,.02-.1,0-.15,.01s-.11,.03-.14,.07c-.03,.03-.04,.07-.06,.11-.01,.03-.02,.06-.05,.07-.09,.02-.05,.15,.04,.13,.09-.02,.12-.1,.15-.18,.02-.05,.05-.07,.1-.06,.06,0,.11,0,.17-.02,.05-.02,.1-.05,.14-.08,.05-.03,.09-.06,.15-.07s.11,0,.17-.01,.1-.04,.15-.07c.07-.05,0-.17-.07-.12h0Z"/>
    <path d="M21.34,25.49c-.03,.06-.07,.11-.15,.09-.08-.02-.16-.02-.22,.04-.06,.06-.09,.14-.16,.19-.03,.03-.07,.04-.11,.06-.04,.02-.08,.05-.12,.08-.07,.06,.03,.16,.1,.1s.16-.08,.23-.14c.03-.03,.06-.06,.09-.1,.02-.03,.05-.07,.08-.09,.02-.01,.04-.01,.07,0,.05,0,.1,.02,.15,0,.08-.02,.13-.08,.17-.16,.04-.08-.08-.15-.12-.07h0Z"/>
    <path d="M20.8,25.22s-.09,.05-.14,.07h.02s-.01,0-.02,0c-.02,0-.03,.02-.04,.03,0,.01-.01,.04,0,.05s.02,.03,.03,.04,.04,.01,.05,0c.06-.02,.11-.05,.17-.08,.01,0,.03-.03,.03-.04s0-.04,0-.05c-.02-.03-.06-.04-.09-.02h0Z"/>
    <path d="M20.03,25.49s-.03,.02-.04,.03h.01s-.03,.01-.05,.02h.02s-.02,0-.04,0h.02s0,0-.01,0c-.02,0-.04,0-.05,.02-.01,.01-.02,.03-.02,.05s0,.04,.02,.05,.03,.02,.05,.02c.04,0,.08-.01,.11-.04,.03-.02,.05-.04,.08-.06,.01-.01,.02-.03,.02-.05s0-.04-.02-.05-.03-.02-.05-.02h-.02s-.02,.01-.03,.02h0Z"/>
    <path d="M25.63,26.56h.02s-.02,0-.02,0l.07-.05-.06-.03,.1-.03s.04-.01,.07-.02l.02-.02s.07-.04,.11-.04l.26-.1v.03s.06,0,.08-.01h.02s0,0,0,0l.28-.04-.26,.1h0s-.03,.02-.03,.02h0s-.12,.05-.12,.05h.06s-.12,.02-.12,.02l-.16,.06s-.12,.05-.19,.03l-.12,.03Z"/>
    <path d="M25.98,23.52c-.26-1.31-.41-2.6-.45-3.82-.12-.18-.05-.43,.09-.58,.14-.14,.34-.2,.53-.25,1.04-.27,2.15-.36,3.22-.25-.02-.11,0-.23,.06-.34,.08-.16,.22-.29,.38-.35,.29-.1,.64,0,.87,.25,.18,.19,.31,.46,.36,.79,.13,.04,.27,.09,.38,.19,.12,.11,.2,.31,.12,.48-.07,.14-.22,.2-.36,.25-1.78,.55-3.78,.47-5.51-.21,.04,1.22,.19,2.51,.45,3.82l-.13,.03Zm-.37-4.02c1.73,.71,3.74,.81,5.53,.25,.11-.03,.23-.08,.28-.18,.05-.1,0-.24-.09-.31-.1-.09-.24-.14-.37-.17h-.04s0-.06,0-.06c-.04-.32-.16-.58-.33-.76-.2-.21-.49-.3-.73-.22-.13,.04-.24,.15-.3,.28-.05,.11-.06,.23-.03,.34l.04,.1h-.11c-1.08-.14-2.21-.05-3.27,.23-.17,.04-.35,.1-.47,.22-.07,.07-.12,.18-.12,.29Z"/>
    <path d="M27.96,19.82l-.14-.02c.05-.29-.06-.62-.29-.8-.23-.19-.57-.24-.84-.13-.27,.11-.48,.38-.53,.68v.05s-.14,0-.14,0v-.06c.06-.36,.3-.67,.62-.8,.32-.13,.71-.07,.98,.15,.27,.22,.4,.59,.34,.93Z"/>
    <path d="M27.63,19.85h-.06c-.38-.06-.78-.12-1.16-.13h-.06s0-.06,0-.06c-.02-.26,.13-.52,.36-.63,.23-.12,.52-.09,.72,.07,.2,.16,.29,.45,.22,.69l-.02,.06Zm-1.15-.26c.34,.01,.7,.06,1.04,.11,.03-.18-.05-.38-.19-.49-.16-.13-.39-.15-.57-.06-.16,.08-.27,.26-.28,.44Z"/>
    <path d="M26.09,19.56h-.06c-.1-.02-.17-.06-.19-.12-.02-.04-.02-.08,0-.13,.02-.05,.06-.09,.12-.11,.07-.03,.11,0,.13,.02,.05,.05,.06,.13,.02,.28l-.02,.06Zm-.1-.22s-.02,.02-.03,.03c0,0,0,.01,0,.02,0,0,.01,.01,.02,.02,0-.03,0-.05,0-.06Z"/>
    <path d="M28.73,19.91c-.28,0-.57-.01-.85-.04v-.14c1.08,.11,2.19,0,3.22-.29-.12-.15-.33-.21-.53-.26-.96-.22-1.93-.27-2.91-.15l-.02-.14c.99-.12,1.98-.07,2.96,.15,.26,.06,.54,.15,.67,.4l.04,.07-.08,.02c-.81,.24-1.66,.37-2.51,.37Z"/>
    <path d="M30.78,19.12l-.09-.04c-.33-.14-.68-.2-1.03-.26h-.03s-.02-.04-.02-.04c-.08-.15-.05-.36,.07-.5,.11-.12,.29-.18,.47-.16,.16,.02,.31,.11,.42,.24,.15,.17,.23,.42,.2,.65v.09Zm-1.06-.42c.31,.05,.62,.11,.93,.22,0-.16-.07-.33-.17-.45-.09-.11-.21-.18-.34-.2-.13-.02-.27,.02-.35,.11-.08,.09-.1,.21-.07,.31Z"/>
    <path d="M28.36,25.81v-.14c.58-.04,1.18-.12,1.75-.26,.19-.05,.4-.11,.53-.26,.09-.11,.13-.25,.16-.41,.38-1.69,.59-3.42,.63-5.15h.14c-.04,1.74-.25,3.48-.63,5.18-.04,.18-.08,.34-.19,.47-.15,.18-.39,.25-.6,.3-.59,.14-1.19,.23-1.79,.27Z"/>
    <path d="M28.59,26.1c-.15,0-.29,0-.44-.02v-.14c.72,.06,1.46-.03,2.14-.26,.11-.04,.23-.08,.32-.16,.07-.06,.12-.18,.09-.28l.13-.05c.06,.16-.02,.33-.12,.43-.11,.1-.25,.15-.37,.19-.56,.19-1.15,.28-1.74,.28Z"/>
    <path d="M30.61,19.37s-.02,0-.03,0c-.08-.04-.16-.06-.25-.07-.04,0-.06-.04-.06-.08,0-.04,.04-.06,.08-.06,.1,.01,.19,.04,.28,.08,.03,.02,.05,.06,.03,.09-.01,.03-.04,.04-.06,.04Z"/>
    <path d="M30.12,19.27s-.02,0-.02,0c-.09-.03-.19-.05-.29-.04-.04,0-.07-.02-.07-.06,0-.04,.02-.07,.06-.07,.12,0,.24,0,.35,.05,.04,.01,.05,.05,.04,.09-.01,.03-.04,.05-.06,.05Z"/>
    <path d="M29.49,19.2s-.02,0-.04,0c-.09-.05-.2-.07-.3-.04-.04,.01-.07-.01-.08-.05-.01-.04,.01-.07,.05-.08,.14-.04,.29-.02,.41,.05,.03,.02,.04,.06,.02,.09-.01,.02-.04,.03-.06,.03Z"/>
    <path d="M28.58,19.17s-.07-.03-.07-.07,.03-.07,.07-.07h.28s0,0,0,0c.04,0,.07,.03,.07,.07,0,.04-.03,.07-.07,.07h-.28s0,0,0,0Z"/>
    <path d="M28.31,19.17s0,0,0,0l-.33-.02s-.07-.03-.07-.07,.03-.07,.07-.07l.33,.02s.07,.03,.07,.07c0,.04-.03,.07-.07,.07Z"/>
    <path d="M28.04,19.4s-.05-.02-.06-.04c-.02-.03,0-.08,.04-.09,.1-.04,.22-.05,.33-.02,.04,0,.06,.05,.05,.08,0,.04-.05,.06-.08,.05-.08-.02-.16-.02-.24,.02,0,0-.02,0-.03,0Z"/>
    <path d="M28.88,19.44s0,0,0,0l-.32-.03s-.07-.04-.06-.07c0-.04,.04-.06,.07-.06l.32,.03s.07,.04,.06,.07c0,.04-.03,.06-.07,.06Z"/>
    <path d="M29.5,19.47s0,0,0,0l-.3-.04s-.06-.04-.06-.08c0-.04,.04-.06,.08-.06l.3,.04s.06,.04,.06,.08c0,.03-.03,.06-.07,.06Z"/>
    <path d="M30.07,19.53s0,0,0,0l-.29-.02s-.07-.04-.06-.07c0-.04,.03-.07,.07-.06l.29,.02s.07,.04,.06,.07c0,.04-.03,.06-.07,.06Z"/>
    <path d="M29.48,19.65s0,0-.01,0l-.32-.06s-.06-.04-.06-.08c0-.04,.04-.06,.08-.06l.32,.06s.06,.04,.06,.08c0,.03-.04,.06-.07,.06Z"/>
    <path d="M28.86,19.65s0,0,0,0l-.28-.02s-.07-.04-.06-.07c0-.04,.04-.07,.07-.06l.28,.02s.07,.04,.06,.07c0,.04-.03,.06-.07,.06Z"/>
    <path d="M28.33,19.62s-.02,0-.03,0c-.06-.03-.12-.03-.18-.01-.04,.01-.08,0-.09-.04-.01-.04,0-.08,.04-.09,.09-.04,.2-.03,.29,.02,.03,.02,.05,.06,.03,.09-.01,.02-.04,.04-.06,.04Z"/>
    <path d="M28.33,19.79s-.02,0-.03,0c-.05-.02-.11-.03-.16-.03-.03,0-.07-.03-.07-.06,0-.04,.03-.07,.06-.07,.08,0,.15,0,.22,.04,.04,.01,.05,.05,.04,.09-.01,.03-.04,.04-.06,.04Z"/>
    <path d="M28.89,19.85s-.02,0-.03,0c-.07-.04-.15-.05-.23-.02-.04,.01-.07,0-.09-.04-.01-.04,0-.07,.04-.09,.11-.04,.24-.02,.34,.03,.03,.02,.04,.06,.03,.09-.01,.02-.04,.03-.06,.03Z"/>
    <path d="M29.39,19.82s-.01,0-.02,0l-.21-.07s-.06-.05-.04-.09,.05-.06,.09-.04l.21,.07s.06,.05,.04,.09c0,.03-.04,.05-.07,.05Z"/>
    <path d="M30.04,19.76s-.01,0-.02,0c-.1-.02-.19-.04-.29-.06-.04,0-.06-.04-.06-.08,0-.04,.04-.06,.08-.06,.1,.02,.2,.04,.31,.06,.04,0,.06,.05,.05,.08,0,.03-.04,.05-.07,.05Z"/>
    <path d="M30.52,19.63s-.02,0-.03,0c-.05-.03-.1-.04-.16-.03-.04,0-.07-.02-.08-.06,0-.04,.02-.07,.06-.08,.08-.01,.17,0,.25,.04,.03,.02,.04,.06,.03,.09-.01,.02-.04,.04-.06,.04Z"/>
    <path d="M30.94,19.48s-.02,0-.03,0c-.05-.03-.1-.04-.16-.05-.04,0-.06-.04-.06-.08,0-.04,.04-.06,.08-.06,.07,.01,.14,.04,.2,.07,.03,.02,.05,.06,.03,.09-.01,.02-.04,.04-.06,.04Z"/>
    <path d="M27.43,19.66s-.01,0-.02,0l-.25-.06s-.06-.05-.05-.08c0-.04,.05-.06,.08-.05l.25,.06s.06,.05,.05,.08c0,.03-.04,.05-.07,.05Z"/>
    <path d="M26.99,19.55s0,0,0,0l-.29-.04s-.06-.04-.06-.08,.04-.07,.08-.06l.29,.04s.06,.04,.06,.08c0,.03-.03,.06-.07,.06Z"/>
    <path d="M27.26,19.4s0,0,0,0l-.34-.05s-.06-.04-.06-.08c0-.04,.04-.06,.08-.06l.34,.05s.06,.04,.06,.08c0,.03-.03,.06-.07,.06Z"/>
    <path d="M31.03,20.11s-.07-.03-.07-.07c0-.04,.03-.07,.07-.07,.08,0,.15-.01,.23-.04,.04-.01,.08,0,.09,.04s0,.08-.04,.09c-.09,.03-.18,.05-.27,.05h0Z"/>
    <path d="M31,20.32s-.07-.03-.07-.07c0-.04,.03-.07,.07-.07,.1,0,.19-.02,.28-.06,.04-.01,.08,0,.09,.04,.01,.04,0,.08-.04,.09-.11,.04-.22,.06-.33,.06h0Z"/>
    <path d="M31.06,20.54s-.06,0-.09,0c-.04,0-.06-.04-.06-.08,0-.04,.04-.06,.08-.06,.09,.01,.18,0,.27-.03,.04-.01,.08,0,.09,.04,.01,.04,0,.08-.04,.09-.08,.03-.16,.05-.25,.05Z"/>
    <path d="M31.01,20.77s-.03,0-.04,0h-.08s.02-.08,.02-.08c0-.04,.05-.07,.08-.06,0,0,.02,0,.02,0,.08,0,.15-.01,.22-.04,.04-.01,.08,0,.09,.04,.01,.04,0,.08-.04,.09-.09,.03-.18,.05-.27,.05Z"/>
    <path d="M31.08,21.01s-.07,0-.1-.01c-.04-.01-.06-.05-.05-.08,.01-.04,.05-.06,.08-.05,.07,.02,.15,0,.21-.04,.03-.02,.07-.02,.1,.01,.02,.03,.02,.07-.01,.1-.06,.05-.15,.08-.23,.08Z"/>
    <path d="M31.01,21.25s-.03,0-.04,0c-.04,0-.07-.04-.06-.07,0-.04,.04-.06,.07-.06,.08,0,.17-.01,.24-.05,.03-.02,.08,0,.09,.03,.02,.03,0,.08-.03,.09-.08,.04-.18,.07-.27,.07Z"/>
    <path d="M31.01,21.51s-.05,0-.07,0c-.04,0-.06-.04-.06-.08,0-.04,.04-.06,.08-.06,.08,.01,.16,0,.23-.04,.03-.02,.07,0,.09,.03,.02,.03,0,.08-.03,.09-.07,.04-.16,.06-.24,.06Z"/>
    <path d="M30.98,21.73s-.07,0-.1,0c-.04,0-.06-.04-.06-.08,0-.04,.04-.06,.08-.06,.09,.02,.18,0,.27-.04,.03-.02,.08,0,.09,.03s0,.08-.03,.09c-.08,.04-.16,.06-.25,.06Z"/>
    <path d="M30.98,21.92s-.03,0-.05,0c-.04,0-.07-.04-.06-.07,0-.04,.04-.07,.07-.06,.07,0,.14,0,.2-.03,.04-.01,.08,0,.09,.04s0,.08-.04,.09c-.07,.03-.14,.04-.22,.04Z"/>
    <path d="M30.8,22.25s-.07-.03-.07-.07c0-.04,.03-.07,.07-.07,.11,0,.23-.03,.33-.09,.03-.02,.07,0,.09,.03,.02,.03,0,.07-.03,.09-.12,.07-.25,.11-.39,.11h0Z"/>
    <path d="M30.88,22.48s-.02,0-.02,0c-.04,0-.07-.03-.07-.07s.03-.07,.07-.07c.08,0,.17-.03,.23-.08,.03-.03,.07-.02,.1,0,.03,.03,.02,.07,0,.1-.08,.08-.19,.12-.31,.12Z"/>
    <path d="M30.85,22.75s-.07-.03-.07-.07c0-.04,.03-.07,.07-.07,.07,0,.14-.02,.2-.05,.03-.02,.08,0,.09,.03,.02,.03,0,.08-.03,.09-.08,.04-.17,.06-.26,.07h0Z"/>
    <path d="M30.69,23.01s-.06-.02-.07-.06c0-.04,.02-.07,.06-.08,.11-.02,.22-.05,.32-.09,.04-.01,.08,0,.09,.04,.01,.04,0,.08-.04,.09-.11,.04-.23,.08-.35,.09,0,0,0,0-.01,0Z"/>
    <path d="M30.75,23.22s-.01,0-.02,0c-.04,0-.07-.03-.07-.07,0-.04,.03-.07,.07-.07,.08,0,.16-.02,.23-.06,.03-.02,.07,0,.09,.03,.02,.03,0,.07-.03,.09-.09,.05-.19,.08-.29,.08Z"/>
    <path d="M30.68,23.47s-.06-.02-.07-.05c0-.04,.01-.07,.05-.08l.28-.08s.07,.01,.08,.05c0,.04-.01,.07-.05,.08l-.28,.08s-.01,0-.02,0Z"/>
    <path d="M30.66,23.68s-.07-.03-.07-.06c0-.04,.03-.07,.06-.07,.09,0,.17-.03,.25-.08,.03-.02,.07-.01,.09,.02,.02,.03,.01,.07-.02,.09-.09,.06-.2,.09-.31,.1,0,0,0,0,0,0Z"/>
    <path d="M30.68,23.9s-.06-.02-.07-.06c0-.04,.02-.07,.05-.08l.21-.04s.07,.02,.08,.05-.02,.07-.05,.08l-.21,.04s0,0-.01,0Z"/>
    <path d="M30.67,24.14s-.02,0-.04,0c-.04,0-.07-.04-.06-.07,0-.04,.04-.07,.07-.06,.07,0,.13-.01,.19-.04,.03-.02,.07,0,.09,.03,.02,.03,0,.07-.03,.09-.07,.04-.15,.06-.23,.06Z"/>
    <path d="M30.62,24.36s-.06-.02-.07-.05c0-.04,.01-.07,.05-.08l.22-.06s.07,.01,.08,.05c0,.04-.01,.07-.05,.08l-.22,.06s-.01,0-.02,0Z"/>
    <path d="M30.62,24.59s-.05-.02-.06-.04c-.01-.04,0-.08,.04-.09l.18-.07s.08,0,.09,.04c.01,.04,0,.08-.04,.09l-.18,.07s-.02,0-.03,0Z"/>
    <path d="M30.58,24.82s-.04,0-.05,0c-.04,0-.06-.05-.05-.08,0-.04,.05-.06,.08-.05,.04,0,.08,0,.1-.04,.02-.03,.07-.04,.1-.01,.03,.02,.04,.07,.01,.1-.05,.06-.12,.1-.19,.1Z"/>
    <path d="M30.5,25.04s-.06-.02-.07-.05c-.01-.04,.01-.07,.05-.09l.17-.05s.07,.01,.09,.05c.01,.04-.01,.07-.05,.09l-.17,.05s-.01,0-.02,0Z"/>
    <path d="M30.47,25.27s-.05-.02-.06-.04c-.01-.04,0-.08,.04-.09l.14-.05s.08,0,.09,.04c.01,.04,0,.08-.04,.09l-.14,.05s-.02,0-.02,0Z"/>
    <path d="M30.28,20.27s-.07-.03-.07-.07c0-.04,.03-.07,.07-.07,.17,0,.34-.04,.5-.1,.04-.01,.08,0,.09,.04s0,.08-.04,.09c-.17,.07-.36,.11-.55,.11h0Z"/>
    <path d="M30.29,20.56s-.06-.02-.07-.06c0-.04,.02-.07,.06-.08l.47-.08s.07,.02,.08,.06c0,.04-.02,.07-.06,.08l-.47,.08s0,0-.01,0Z"/>
    <path d="M30.32,20.85s-.03,0-.05,0c-.04,0-.07-.03-.06-.07,0-.04,.03-.07,.07-.06,.14,0,.29-.03,.41-.11,.03-.02,.07-.01,.09,.02,.02,.03,.01,.07-.02,.09-.13,.09-.29,.13-.45,.13Z"/>
    <path d="M30.32,21.15s-.04,0-.06,0c-.04,0-.07-.03-.07-.07s.03-.07,.07-.07c.12,0,.23,0,.35-.04,.02,0,.03,0,.04-.02-.01-.04,0-.07,.04-.08,.03-.01,.08,0,.09,.04,.02,.05,0,.11-.04,.14-.03,.03-.06,.04-.09,.05-.11,.03-.22,.05-.33,.05Z"/>
    <path d="M30.18,21.44s-.06-.02-.07-.06c0-.04,.02-.07,.06-.08l.4-.07s.02-.01,.04-.02h.13s.02,.12,.02,.12l-.56,.1s0,0-.01,0Z"/>
    <path d="M30.23,21.64s-.07-.03-.07-.07c0-.04,.03-.07,.07-.07,.12,0,.24-.02,.35-.06,.04,0,.07,.01,.08,.05,0,.04-.01,.07-.05,.08-.12,.03-.25,.05-.38,.06,0,0,0,0,0,0Z"/>
    <path d="M30.21,21.86s-.06-.02-.07-.06c0-.04,.02-.07,.06-.08l.45-.08s.07,.02,.08,.06c0,.04-.02,.07-.06,.08l-.45,.08s0,0-.01,0Z"/>
    <path d="M30.17,22.13s-.02,0-.02,0c-.04,0-.07-.03-.07-.07,0-.04,.03-.06,.07-.07,.15,0,.3-.03,.44-.08,.04-.01,.08,0,.09,.04s0,.08-.04,.09c-.15,.06-.31,.09-.47,.09Z"/>
    <path d="M30.12,22.36s-.06-.03-.07-.06c0-.04,.02-.07,.06-.08l.47-.06s.07,.02,.08,.06c0,.04-.02,.07-.06,.08l-.47,.06s0,0,0,0Z"/>
    <path d="M30.04,22.58s-.06-.02-.07-.06c0-.04,.02-.07,.06-.08l.51-.07s.07,.02,.08,.06c0,.04-.02,.07-.06,.08l-.51,.07s0,0,0,0Z"/>
    <path d="M30.15,22.84s-.07-.03-.07-.07c0-.04,.03-.07,.07-.07,.14,0,.28-.02,.42-.05,.04,0,.07,.02,.08,.05,0,.04-.02,.07-.05,.08-.15,.03-.29,.05-.44,.05h0Z"/>
    <path d="M30.06,23.12s-.06-.02-.07-.06c0-.04,.02-.07,.06-.08l.46-.07s.07,.02,.08,.06c0,.04-.02,.07-.06,.08l-.46,.07s0,0-.01,0Z"/>
    <path d="M30.09,23.28s-.07-.03-.07-.07c0-.04,.03-.07,.07-.07h.32s.07,.01,.07,.05c0,.04-.03,.07-.07,.07h-.32s0,.01,0,.01Z"/>
    <path d="M30.08,23.5s-.03,0-.04,0c-.04,0-.07-.03-.07-.07,0-.04,.03-.07,.07-.07h0c.12,0,.25-.01,.37-.04,.04,0,.07,.01,.08,.05,0,.04-.01,.07-.05,.08-.12,.03-.24,.05-.36,.05Z"/>
    <path d="M30,23.75s-.06-.03-.07-.06c0-.04,.02-.07,.06-.08l.44-.04s.07,.02,.08,.06c0,.04-.02,.07-.06,.08l-.44,.04s0,0,0,0Z"/>
    <path d="M30.01,23.99s-.07-.03-.07-.06c0-.04,.03-.07,.06-.07,.13-.01,.25-.04,.37-.09,.03-.01,.08,0,.09,.04,.01,.04,0,.08-.04,.09-.13,.05-.27,.08-.41,.1,0,0,0,0,0,0Z"/>
    <path d="M30,24.21s-.02,0-.02,0c-.04,0-.07-.03-.07-.07,0-.04,.03-.07,.07-.07,.01,0,.01,0,.02,0,.14,0,.28-.01,.42-.04,.04,0,.07,.02,.08,.05,0,.04-.02,.07-.05,.08-.15,.03-.3,.05-.45,.05Z"/>
    <path d="M29.96,24.45s-.06-.02-.07-.06c0-.04,.02-.07,.06-.08l.4-.07s.07,.02,.08,.06c0,.04-.02,.07-.06,.08l-.4,.07s0,0-.01,0Z"/>
    <path d="M29.98,24.68s-.06-.02-.07-.06c0-.04,.02-.07,.06-.08l.37-.07s.07,.02,.08,.06c0,.04-.02,.07-.06,.08l-.37,.07s0,0-.01,0Z"/>
    <path d="M29.97,24.92s-.06-.02-.07-.06c0-.04,.02-.07,.06-.08l.38-.05s.07,.02,.08,.06c0,.04-.02,.07-.06,.08l-.38,.05s0,0,0,0Z"/>
    <path d="M29.97,25.17s-.06-.02-.07-.05c0-.04,.01-.07,.05-.08l.32-.08s.07,.01,.08,.05c0,.04-.01,.07-.05,.08l-.32,.08s-.01,0-.02,0Z"/>
    <path d="M29.93,25.4s-.06-.02-.07-.06c0-.04,.02-.07,.06-.08l.31-.05s.07,.02,.08,.06c0,.04-.02,.07-.06,.08l-.31,.05s0,0-.01,0Z"/>
    <path d="M29.54,20.41s-.07-.03-.07-.06c0-.04,.02-.07,.06-.07l.49-.04s.07,.02,.07,.06c0,.04-.02,.07-.06,.07l-.49,.04s0,0,0,0Z"/>
    <path d="M29.52,20.66s-.06-.02-.07-.05c-.01-.04,.01-.07,.05-.08,.15-.04,.3-.06,.46-.07h0s.07,.03,.07,.07c0,.04-.03,.07-.07,.07-.14,0-.28,.02-.42,.06,0,0-.01,0-.02,0Z"/>
    <path d="M29.65,20.95s-.06-.02-.07-.05c0-.04,.01-.07,.05-.08,.13-.04,.27-.05,.4-.05,.04,0,.07,.03,.07,.07s-.03,.07-.07,.07c-.12,0-.24,.01-.36,.04,0,0-.01,0-.02,0Z"/>
    <path d="M29.65,21.28s-.02,0-.03,0c-.04,0-.07-.03-.07-.07,0-.04,.04-.06,.07-.07,.11,0,.23-.01,.34-.05,.04-.01,.07,0,.09,.05,.01,.04,0,.07-.05,.09-.11,.03-.23,.05-.35,.05Z"/>
    <path d="M29.6,21.59s-.06-.02-.07-.06c0-.04,.02-.07,.06-.08l.41-.07s.07,.02,.08,.06c0,.04-.02,.07-.06,.08l-.41,.07s0,0-.01,0Z"/>
    <path d="M29.62,21.91s-.06,0-.09,0c-.04,0-.06-.04-.06-.08,0-.04,.04-.06,.08-.06,.12,.02,.25-.01,.36-.08,.03-.02,.07-.01,.09,.02,.02,.03,.01,.07-.02,.09-.11,.07-.23,.1-.36,.1Z"/>
    <path d="M29.52,22.2s-.06-.03-.07-.06c0-.04,.02-.07,.06-.08l.36-.04s.07,.02,.08,.06c0,.04-.02,.07-.06,.08l-.36,.04s0,0,0,0Z"/>
    <path d="M29.54,22.46s-.06-.02-.07-.05c-.01-.04,0-.07,.04-.09,.12-.04,.25-.06,.38-.06,.04,0,.07,.03,.07,.07s-.04,.06-.07,.07c-.11,0-.22,.01-.33,.05,0,0-.01,0-.02,0Z"/>
    <path d="M29.46,22.78s-.06-.02-.07-.05c0-.04,.02-.07,.05-.08l.39-.08s.07,.02,.08,.05c0,.04-.02,.07-.05,.08l-.39,.08s0,0-.01,0Z"/>
    <path d="M29.42,23.09s-.07-.03-.07-.07c0-.04,.03-.07,.07-.07,.12,0,.23-.03,.34-.08,.04-.02,.08,0,.09,.04,.01,.03,0,.08-.04,.09-.12,.05-.26,.08-.39,.09h0Z"/>
    <path d="M29.4,23.4s-.06-.02-.07-.06c0-.04,.02-.07,.06-.08l.39-.06s.07,.02,.08,.06c0,.04-.02,.07-.06,.08l-.39,.06s0,0-.01,0Z"/>
    <path d="M29.35,23.66s-.06-.02-.07-.06c0-.04,.02-.07,.06-.08l.39-.07s.07,.02,.08,.06c0,.04-.02,.07-.06,.08l-.39,.07s0,0-.01,0Z"/>
    <path d="M29.39,23.94s-.06-.02-.07-.06c0-.04,.02-.07,.06-.08l.34-.06s.07,.02,.08,.06c0,.04-.02,.07-.06,.08l-.34,.06s0,0-.01,0Z"/>
    <path d="M29.32,24.2s-.06-.02-.07-.05c0-.04,.02-.07,.05-.08l.44-.1s.07,.02,.08,.05c0,.04-.02,.07-.05,.08l-.44,.1s0,0-.01,0Z"/>
    <path d="M29.32,24.49s-.05-.01-.06-.04c-.02-.03,0-.08,.03-.09,.13-.07,.29-.11,.44-.11,.04,0,.07,.03,.07,.07,0,.04-.03,.07-.07,.07-.13,0-.26,.04-.38,.1-.01,0-.02,0-.03,0Z"/>
    <path d="M29.32,24.73s-.06-.02-.07-.06c0-.04,.02-.07,.06-.08l.4-.06s.07,.02,.08,.06c0,.04-.02,.07-.06,.08l-.4,.06s0,0-.01,0Z"/>
    <path d="M29.4,24.93s-.02,0-.04,0c-.04,0-.07-.03-.07-.07,0-.04,.03-.06,.07-.07,.13,0,.25-.02,.36-.07,.03-.02,.08,0,.09,.03s0,.08-.03,.09c-.12,.05-.25,.08-.39,.08Z"/>
    <path d="M29.38,25.18s-.07-.03-.07-.06c0-.04,.02-.07,.06-.07l.33-.03s.07,.02,.07,.06c0,.04-.02,.07-.06,.07l-.33,.03s0,0,0,0Z"/>
    <path d="M29.26,25.43s-.06-.02-.07-.06c0-.04,.02-.07,.06-.08l.38-.05s.07,.02,.08,.06c0,.04-.02,.07-.06,.08l-.38,.05s0,0,0,0Z"/>
    <path d="M29,20.55c-.06,0-.13,0-.19-.03-.04-.01-.06-.05-.05-.09,.01-.04,.05-.06,.09-.05,.13,.04,.27,.03,.39-.03,.03-.02,.08,0,.09,.03,.02,.03,0,.08-.03,.09-.09,.04-.19,.07-.29,.07Z"/>
    <path d="M28.8,20.83s-.07-.03-.07-.07c0-.04,.03-.07,.07-.07,.15,0,.3-.03,.44-.07,.04-.01,.08,0,.09,.04,.01,.04,0,.07-.04,.09-.15,.05-.32,.08-.48,.08h0Z"/>
    <path d="M28.89,21.09s-.06-.03-.07-.06c0-.04,.02-.07,.06-.08l.45-.05s.07,.02,.08,.06-.02,.07-.06,.08l-.45,.05s0,0,0,0Z"/>
    <path d="M29.05,21.35c-.07,0-.14,0-.21-.02-.04,0-.06-.04-.05-.08,0-.04,.04-.06,.08-.05,.14,.03,.28,.02,.41,0,.04,0,.07,.02,.08,.05,0,.04-.02,.07-.05,.08-.08,.02-.17,.03-.25,.03Z"/>
    <path d="M28.79,21.63s-.07-.03-.07-.07c0-.04,.03-.07,.07-.07l.45-.02s.07,.03,.07,.07c0,.04-.03,.07-.07,.07l-.45,.02s0,0,0,0Z"/>
    <path d="M28.92,21.91s-.07-.03-.07-.07c0-.04,.03-.07,.07-.07h.41s.07,.02,.07,.06-.03,.07-.07,.07h-.41s0,0,0,0Z"/>
    <path d="M28.83,22.24s-.06-.02-.07-.05c-.01-.04,0-.07,.04-.09,.14-.05,.3-.06,.45-.05,.04,0,.07,.04,.06,.07,0,.04-.04,.07-.07,.06-.13,0-.27,0-.39,.05,0,0-.01,0-.02,0Z"/>
    <path d="M29.03,22.51c-.06,0-.11,0-.17-.01-.04,0-.06-.04-.06-.08,0-.04,.04-.06,.08-.06,.13,.02,.26,.01,.38-.02,.04-.01,.07,.01,.08,.05s-.01,.07-.05,.08c-.09,.02-.18,.04-.27,.04Z"/>
    <path d="M29,22.8s-.09,0-.14-.02c-.04,0-.06-.05-.05-.08,0-.04,.04-.06,.08-.05,.13,.03,.26,0,.37-.06,.03-.02,.07,0,.09,.02,.02,.03,0,.07-.02,.09-.1,.06-.22,.09-.34,.09Z"/>
    <path d="M28.82,23.08s-.07-.03-.07-.06c0-.04,.02-.07,.06-.07l.43-.04s.07,.02,.07,.06-.02,.07-.06,.07l-.43,.04s0,0,0,0Z"/>
    <path d="M28.75,23.34s-.06-.03-.07-.06c0-.04,.02-.07,.06-.08l.4-.04s.07,.02,.08,.06c0,.04-.02,.07-.06,.08l-.4,.04s0,0,0,0Z"/>
    <path d="M28.86,23.69h0s-.07-.03-.07-.07c0-.04,.03-.07,.07-.07,0,0,0,0,0,0,.1,0,.21-.02,.3-.06,.04-.01,.08,0,.09,.04s0,.08-.04,.09c-.11,.05-.23,.07-.35,.07Z"/>
    <path d="M28.81,23.97s-.06-.02-.07-.05c-.01-.04,0-.07,.04-.09,.14-.05,.29-.08,.44-.08,.04,0,.07,.03,.07,.07s-.03,.07-.07,.07c-.14,0-.27,.03-.4,.07,0,0-.01,0-.02,0Z"/>
    <path d="M28.75,24.28s-.06-.02-.07-.05c0-.04,.01-.07,.05-.08l.38-.09s.07,.01,.08,.05c0,.04-.01,.07-.05,.08l-.38,.09s-.01,0-.02,0Z"/>
    <path d="M28.79,24.62s-.07-.03-.07-.06c0-.04,.03-.07,.06-.07,.1,0,.19-.02,.29-.05,.04-.01,.07,.01,.08,.05s-.01,.07-.05,.08c-.1,.03-.21,.05-.31,.05,0,0,0,0,0,0Z"/>
    <path d="M28.8,24.83s-.06-.02-.07-.06c0-.04,.02-.07,.06-.08l.36-.07s.07,.02,.08,.06c0,.04-.02,.07-.06,.08l-.36,.07s0,0-.01,0Z"/>
    <path d="M28.74,25.04s-.04,0-.06,0c-.04,0-.07-.03-.07-.07,0-.04,.03-.06,.07-.07,.13,0,.26,0,.39-.04,.04,0,.07,.01,.08,.05s-.01,.07-.05,.08c-.12,.03-.24,.04-.36,.04Z"/>
    <path d="M28.73,25.27s-.06-.02-.07-.06c0-.04,.02-.07,.06-.08l.27-.04s.07,.02,.08,.06c0,.04-.02,.07-.06,.08l-.27,.04s0,0,0,0Z"/>
    <path d="M28.67,25.54s-.06-.02-.07-.06c0-.04,.02-.07,.06-.08l.32-.05s.07,.02,.08,.06c0,.04-.02,.07-.06,.08l-.32,.05s0,0-.01,0Z"/>
    <path d="M28.41,20.47c-.14,0-.27-.02-.4-.06-.04-.01-.06-.05-.04-.09,.01-.04,.05-.06,.09-.04,.16,.05,.32,.07,.49,.05,.04,0,.07,.02,.08,.06,0,.04-.02,.07-.06,.08-.05,0-.1,0-.15,0Z"/>
    <path d="M28.51,20.69s0,0,0,0l-.45-.05s-.06-.04-.06-.08,.04-.06,.08-.06l.45,.05s.06,.04,.06,.08c0,.04-.03,.06-.07,.06Z"/>
    <path d="M28.3,20.91c-.09,0-.18,0-.27-.03-.04,0-.06-.04-.05-.08,0-.04,.04-.06,.08-.05,.14,.03,.29,.03,.43,0,.04,0,.07,.02,.08,.06,0,.04-.02,.07-.06,.08-.07,.01-.14,.02-.21,.02Z"/>
    <path d="M28.37,21.18c-.11,0-.23-.02-.33-.05-.04-.01-.06-.05-.04-.09,.01-.04,.05-.05,.09-.04,.13,.04,.27,.06,.4,.04,.04,0,.07,.02,.08,.06,0,.04-.02,.07-.06,.08-.04,0-.09,0-.13,0Z"/>
    <path d="M28.42,21.38c-.11,0-.23,0-.34-.03-.04,0-.06-.04-.06-.08,0-.04,.04-.06,.08-.06,.14,.02,.29,.03,.43,.02,.04,0,.07,.03,.07,.06,0,.04-.03,.07-.06,.07-.04,0-.08,0-.12,0Z"/>
    <path d="M28.57,21.64h0l-.58-.02s-.07-.03-.07-.07c0-.04,.03-.07,.07-.07l.58,.02s.07,.03,.07,.07c0,.04-.03,.07-.07,.07Z"/>
    <path d="M28.55,21.92s0,0,0,0l-.42-.04s-.07-.04-.06-.08c0-.04,.04-.07,.08-.06l.42,.04s.07,.04,.06,.08c0,.04-.03,.06-.07,.06Z"/>
    <path d="M28.66,22.13h-.54s-.07-.05-.07-.08c0-.04,.04-.07,.07-.07h.54s.07,.05,.07,.08c0,.04-.03,.07-.07,.07Z"/>
    <path d="M28.46,22.37c-.13,0-.26-.03-.37-.09-.03-.02-.05-.06-.03-.09,.02-.03,.06-.05,.09-.03,.12,.06,.25,.08,.38,.07,.04,0,.07,.02,.08,.06,0,.04-.02,.07-.06,.08-.03,0-.06,0-.09,0Z"/>
    <path d="M28.41,22.64c-.09,0-.18-.01-.27-.04-.04-.01-.06-.05-.04-.09,.01-.04,.05-.06,.09-.04,.13,.04,.26,.05,.39,.02,.04,0,.07,.01,.08,.05,0,.04-.01,.07-.05,.08-.06,.02-.13,.02-.2,.02Z"/>
    <path d="M28.29,22.86c-.06,0-.11,0-.17,0-.04,0-.07-.04-.06-.07,0-.04,.04-.07,.07-.06,.15,.01,.29,0,.44-.01,.04,0,.07,.02,.08,.06,0,.04-.02,.07-.06,.08-.1,.01-.2,.02-.3,.02Z"/>
    <path d="M28.54,23.09s0,0,0,0l-.47-.03s-.07-.04-.06-.07c0-.04,.04-.07,.07-.06l.47,.03s.07,.04,.06,.07c0,.04-.03,.06-.07,.06Z"/>
    <path d="M28.58,23.34h-.39s-.07-.05-.07-.09c0-.04,.04-.07,.07-.07h.39s.07,.05,.07,.09c0,.04-.03,.07-.07,.07Z"/>
    <path d="M28.48,23.54c-.13,0-.27-.01-.4-.04-.04,0-.06-.04-.05-.08,0-.04,.04-.06,.08-.05,.15,.03,.3,.04,.45,.03,.04,0,.07,.03,.07,.07,0,.04-.03,.07-.07,.07-.03,0-.06,0-.09,0Z"/>
    <path d="M28.48,23.74c-.13,0-.27,0-.4-.03-.04,0-.06-.04-.06-.08,0-.04,.04-.07,.08-.06,.15,.02,.3,.03,.45,.02h0s.07,.03,.07,.07c0,.04-.03,.07-.07,.07-.03,0-.05,0-.08,0Z"/>
    <path d="M28.34,24.02c-.07,0-.14-.01-.21-.04-.04-.01-.05-.05-.04-.09s.05-.05,.09-.04c.11,.04,.23,.04,.34,0,.04-.01,.08,0,.09,.04,.01,.04,0,.08-.04,.09-.07,.03-.15,.04-.23,.04Z"/>
    <path d="M28.47,24.28h0c-.12,0-.24-.06-.33-.14-.03-.03-.03-.07,0-.1,.03-.03,.07-.03,.1,0,.06,.06,.15,.1,.24,.1,.04,0,.07,.03,.07,.07,0,.04-.03,.07-.07,.07Z"/>
    <path d="M28.6,24.55s0,0,0,0l-.25-.03s-.06-.04-.06-.08c0-.04,.04-.06,.08-.06l.25,.03s.06,.04,.06,.08c0,.03-.03,.06-.07,.06Z"/>
    <path d="M27.74,20.48c-.13,0-.26-.03-.37-.08-.03-.02-.05-.06-.03-.09,.02-.03,.06-.05,.09-.03,.11,.05,.24,.08,.36,.07,.04,0,.07,.03,.07,.06,0,.04-.03,.07-.06,.07-.02,0-.04,0-.05,0Z"/>
    <path d="M27.79,20.72s0,0,0,0l-.36-.03s-.07-.04-.06-.07c0-.04,.04-.07,.07-.06l.36,.03s.07,.04,.06,.07c0,.04-.03,.06-.07,.06Z"/>
    <path d="M27.67,21.01c-.1,0-.19-.03-.27-.1-.03-.03-.03-.07,0-.1,.02-.03,.07-.03,.1,0,.08,.07,.2,.08,.29,.04,.03-.02,.08,0,.09,.03,.02,.03,0,.08-.03,.09-.05,.03-.12,.04-.18,.04Z"/>
    <path d="M27.8,21.31s0,0,0,0c-.14,0-.28-.03-.42-.07-.04-.01-.06-.05-.05-.08,.01-.04,.05-.06,.08-.05,.13,.04,.26,.06,.39,.07,.04,0,.07,.03,.06,.07,0,.04-.03,.06-.07,.06Z"/>
    <path d="M27.84,21.56s0,0-.01,0l-.37-.06s-.06-.04-.06-.08,.04-.06,.08-.06l.37,.06s.06,.04,.06,.08c0,.03-.03,.06-.07,.06Z"/>
    <path d="M27.8,21.83s0,0-.01,0l-.34-.07s-.06-.04-.05-.08,.04-.06,.08-.05l.34,.07s.06,.04,.05,.08c0,.03-.04,.06-.07,.06Z"/>
    <path d="M27.84,22.12s0,0,0,0l-.42-.04s-.07-.04-.06-.07c0-.04,.04-.06,.07-.06l.42,.04s.07,.04,.06,.07c0,.04-.03,.06-.07,.06Z"/>
    <path d="M27.87,22.43s-.02,0-.02,0c-.13-.05-.27-.08-.4-.07-.04,0-.07-.03-.07-.07,0-.04,.03-.07,.07-.07,.15,0,.31,.03,.46,.08,.04,.01,.05,.05,.04,.09-.01,.03-.04,.04-.06,.04Z"/>
    <path d="M27.84,22.65s0,0,0,0c-.17-.01-.33-.05-.49-.1-.04-.01-.06-.05-.04-.09,.01-.04,.05-.06,.09-.04,.15,.05,.3,.08,.46,.09,.04,0,.07,.04,.06,.07,0,.04-.03,.06-.07,.06Z"/>
    <path d="M27.87,23.01s-.02,0-.03,0c-.11-.06-.23-.1-.36-.11-.04,0-.07-.04-.06-.07,0-.04,.04-.06,.07-.06,.14,.01,.28,.06,.41,.12,.03,.02,.05,.06,.03,.09-.01,.02-.04,.04-.06,.04Z"/>
    <path d="M27.84,23.33s-.01,0-.02,0l-.38-.12s-.06-.05-.05-.09c.01-.04,.05-.06,.09-.05l.38,.12s.06,.05,.05,.09c0,.03-.04,.05-.07,.05Z"/>
    <path d="M27.82,23.56s-.01,0-.02,0l-.34-.08s-.06-.05-.05-.08c0-.04,.05-.06,.08-.05l.34,.08s.06,.05,.05,.08c0,.03-.04,.05-.07,.05Z"/>
    <path d="M27.84,23.83s-.01,0-.02,0l-.36-.1s-.06-.05-.05-.08c.01-.04,.05-.06,.08-.05l.36,.1s.06,.05,.05,.08c0,.03-.04,.05-.07,.05Z"/>
    <path d="M27.26,23.64h0c-.13,0-.27-.04-.39-.1-.03-.02-.05-.06-.03-.09,.02-.03,.06-.05,.09-.03,.1,.05,.21,.08,.33,.08,.04,0,.07,.03,.07,.07,0,.04-.03,.07-.07,.07Z"/>
    <path d="M27.27,23.37s-.01,0-.02,0l-.32-.08s-.06-.05-.05-.08c0-.04,.05-.06,.08-.05l.32,.08s.06,.05,.05,.08c0,.03-.04,.05-.07,.05Z"/>
    <path d="M27.28,23.08s-.01,0-.02,0l-.31-.1s-.06-.05-.04-.09c.01-.04,.05-.06,.09-.04l.31,.1s.06,.05,.04,.09c0,.03-.04,.05-.07,.05Z"/>
    <path d="M27.26,22.78s-.02,0-.02,0l-.32-.11s-.05-.05-.04-.09c.01-.04,.05-.05,.09-.04l.32,.11s.05,.05,.04,.09c0,.03-.04,.05-.06,.05Z"/>
    <path d="M27.19,22.4s-.01,0-.02,0l-.24-.08s-.06-.05-.04-.09c.01-.04,.05-.06,.09-.04l.24,.08s.06,.05,.04,.09c0,.03-.04,.05-.07,.05Z"/>
    <path d="M27.24,22.05s-.01,0-.02,0l-.31-.09s-.06-.05-.05-.08c.01-.04,.05-.06,.08-.05l.31,.09s.06,.05,.05,.08c0,.03-.04,.05-.07,.05Z"/>
    <path d="M27.23,21.74s-.02,0-.03,0l-.35-.14s-.05-.05-.04-.09c.01-.04,.05-.05,.09-.04l.35,.14s.05,.05,.04,.09c-.01,.03-.04,.04-.06,.04Z"/>
    <path d="M27.27,21.37s-.02,0-.02,0l-.32-.11s-.05-.05-.04-.09c.01-.04,.05-.05,.09-.04l.32,.11s.05,.05,.04,.09c0,.03-.04,.05-.06,.05Z"/>
    <path d="M27.21,21.09s-.01,0-.02,0c-.11-.03-.22-.07-.31-.13-.03-.02-.04-.06-.03-.09,.02-.03,.06-.04,.09-.03,.09,.05,.18,.09,.28,.11,.04,0,.06,.05,.05,.08,0,.03-.04,.05-.07,.05Z"/>
    <path d="M27.16,20.77c-.12,0-.24-.05-.33-.14-.03-.03-.02-.07,0-.1,.03-.03,.07-.02,.1,0,.07,.07,.17,.11,.26,.1,.04,0,.07,.02,.08,.06s-.02,.07-.06,.08c-.02,0-.03,0-.05,0Z"/>
    <path d="M27.21,20.45s0,0,0,0c-.11,0-.21-.03-.32-.07-.04-.01-.05-.05-.04-.09s.05-.05,.09-.04c.09,.03,.18,.05,.28,.06,.04,0,.07,.04,.06,.07,0,.04-.03,.06-.07,.06Z"/>
    <path d="M26.66,23.45s-.02,0-.02,0l-.29-.11s-.05-.05-.04-.09c.01-.04,.05-.05,.09-.04l.29,.11s.05,.05,.04,.09c-.01,.03-.04,.04-.06,.04Z"/>
    <path d="M26.67,23.2s-.02,0-.03,0c-.1-.05-.2-.1-.31-.12-.04,0-.06-.05-.05-.08,0-.04,.05-.06,.08-.05,.12,.03,.23,.08,.34,.14,.03,.02,.04,.06,.03,.09-.01,.02-.04,.03-.06,.03Z"/>
    <path d="M26.62,22.8c-.12,0-.24-.05-.33-.13-.03-.03-.03-.07,0-.1,.03-.03,.07-.03,.1,0,.07,.07,.17,.1,.27,.09,.04,0,.07,.02,.07,.06s-.02,.07-.06,.07c-.01,0-.03,0-.04,0Z"/>
    <path d="M26.65,22.46s-.01,0-.02,0c-.13-.03-.27-.08-.39-.14-.03-.02-.05-.06-.03-.09,.02-.03,.06-.05,.09-.03,.11,.06,.24,.1,.36,.13,.04,0,.06,.05,.05,.08,0,.03-.04,.05-.07,.05Z"/>
    <path d="M26.63,22.22s-.02,0-.02,0c-.15-.05-.29-.13-.43-.21-.03-.02-.04-.06-.02-.1,.02-.03,.06-.04,.1-.02,.12,.08,.26,.15,.4,.2,.04,.01,.05,.05,.04,.09-.01,.03-.04,.05-.06,.05Z"/>
    <path d="M26.59,21.83s-.02,0-.03,0l-.37-.15s-.05-.05-.04-.09,.05-.05,.09-.04l.37,.15s.05,.05,.04,.09c-.01,.03-.04,.04-.06,.04Z"/>
    <path d="M26.65,21.45s0,0-.01,0c-.12-.02-.24-.06-.36-.11-.03-.02-.05-.06-.03-.09,.02-.03,.06-.05,.09-.03,.11,.05,.22,.08,.33,.1,.04,0,.06,.04,.05,.08,0,.03-.04,.06-.07,.06Z"/>
    <path d="M26.63,21.09s0,0,0,0c-.14-.02-.28-.07-.4-.14-.03-.02-.04-.06-.02-.09,.02-.03,.06-.04,.09-.02,.1,.07,.22,.11,.35,.12,.04,0,.06,.04,.06,.08,0,.03-.03,.06-.07,.06Z"/>
    <path d="M26.63,20.76s0,0-.01,0c-.15-.02-.3-.08-.43-.17-.03-.02-.04-.06-.02-.1,.02-.03,.06-.04,.1-.02,.11,.08,.24,.13,.37,.14,.04,0,.06,.04,.06,.08,0,.03-.03,.06-.07,.06Z"/>
    <path d="M26.64,20.45s-.01,0-.02,0l-.28-.09s-.06-.05-.05-.09c.01-.04,.05-.06,.09-.05l.28,.09s.06,.05,.05,.09c0,.03-.04,.05-.07,.05Z"/>
    <path d="M26.09,20.25s0,0-.01,0c-.09-.01-.17-.05-.25-.1-.03-.02-.04-.06-.02-.1,.02-.03,.06-.04,.1-.02,.06,.04,.12,.07,.19,.08,.04,0,.06,.04,.06,.08,0,.03-.03,.06-.07,.06Z"/>
    <path d="M26.03,20.57s0,0-.01,0l-.24-.04s-.06-.04-.06-.08c0-.04,.04-.06,.08-.06l.24,.04s.06,.04,.06,.08c0,.03-.03,.06-.07,.06Z"/>
    <path d="M26.1,21s0,0-.01,0l-.23-.05s-.06-.05-.05-.08c0-.04,.04-.06,.08-.05l.23,.05s.06,.04,.05,.08c0,.03-.04,.05-.07,.05Z"/>
    <path d="M26.06,21.39s-.01,0-.02,0l-.24-.07s-.06-.05-.05-.09c.01-.04,.05-.06,.09-.05l.24,.07s.06,.05,.05,.09c0,.03-.04,.05-.07,.05Z"/>
    <path d="M26.04,21.75s-.02,0-.03,0l-.19-.08s-.05-.05-.04-.09c.01-.04,.05-.05,.09-.04l.19,.08s.05,.05,.04,.09c-.01,.03-.04,.04-.06,.04Z"/>
    <path d="M26.11,22.14s-.02,0-.03,0l-.19-.08s-.05-.06-.04-.09c.02-.03,.06-.05,.09-.04l.19,.08s.05,.06,.04,.09c-.01,.03-.04,.04-.06,.04Z"/>
    <path d="M26.02,22.46c-.06,0-.11-.02-.16-.05-.03-.02-.04-.06-.02-.1,.02-.03,.07-.04,.1-.02,.03,.02,.07,.03,.11,.02,.04,0,.07,.01,.08,.05,0,.04-.01,.07-.05,.08-.02,0-.05,0-.07,0Z"/>
    <path d="M26.18,22.86s-.02,0-.03,0l-.23-.09s-.05-.05-.04-.09c.01-.04,.05-.05,.09-.04l.23,.09s.05,.05,.04,.09c-.01,.03-.04,.04-.06,.04Z"/>
    <path d="M26.17,23.13s-.02,0-.03,0l-.21-.1s-.05-.06-.03-.09c.02-.03,.06-.05,.09-.03l.21,.1s.05,.06,.03,.09c-.01,.02-.04,.04-.06,.04Z"/>
  </g>
  <path d="M6.24,29.96c-2.24-2.61-3.48-5.91-3.48-9.3,0-8.06,6.84-14.62,15.24-14.62s15.24,6.56,15.24,14.62c0,3.38-1.23,6.68-3.47,9.29l-.1-.09c2.22-2.58,3.44-5.85,3.44-9.2,0-7.99-6.78-14.48-15.1-14.48S2.9,12.67,2.9,20.66c0,3.36,1.22,6.63,3.45,9.21l-.1,.09Z"/>
</svg>